<?xml version="1.0" encoding="UTF-8" standalone="no"?>
<svg
   viewBox="155.226 0 158.403 53.346"
   style="enable-background:new 0 0 312.88 81;"
   version="1.1"
   id="svg6"
   sodipodi:docname="side_logo.430b69df.svg"
   inkscape:version="1.3.2 (091e20ef0f, 2023-11-25, custom)"
   xmlns:inkscape="http://www.inkscape.org/namespaces/inkscape"
   xmlns:sodipodi="http://sodipodi.sourceforge.net/DTD/sodipodi-0.dtd"
   xmlns="http://www.w3.org/2000/svg"
   xmlns:svg="http://www.w3.org/2000/svg">
  <sodipodi:namedview
     id="namedview6"
     pagecolor="#ffffff"
     bordercolor="#000000"
     borderopacity="0.25"
     inkscape:showpageshadow="2"
     inkscape:pageopacity="0.0"
     inkscape:pagecheckerboard="0"
     inkscape:deskcolor="#d1d1d1"
     showgrid="false"
     inkscape:zoom="5.9370847"
     inkscape:cx="88.427238"
     inkscape:cy="43.455671"
     inkscape:window-width="1920"
     inkscape:window-height="1008"
     inkscape:window-x="1920"
     inkscape:window-y="0"
     inkscape:window-maximized="1"
     inkscape:current-layer="svg6" />
  <defs
     id="defs1">
    <style
       type="text/css"
       id="style1">
	.st0{fill:#C01718;}
	.st1{clip-path:url(#SVGID_00000015321342622894311960000001938989380830437509_);fill:#C00000;stroke:#C00000;}
</style>
    <defs
       id="defs4">
      <rect
         id="SVGID_1_"
         x="8.96"
         y="-3"
         width="295"
         height="88" />
    </defs>
    <clipPath
       id="SVGID_00000030472456282168139910000012201614647901060799_">
      <rect
         x="8.96"
         y="-3"
         width="295"
         height="88"
         style="overflow:visible"
         id="rect4" />
    </clipPath>
  </defs>
  <path
     d="m 166.88,43.47 v -0.45 c 0,-0.06 -0.05,-0.11 -0.11,-0.11 h -3.36 c -0.07,0 -0.11,0.04 -0.11,0.11 v 7.32 c 0,0.06 0.05,0.11 0.11,0.11 h 0.58 c 0.07,0 0.11,-0.04 0.11,-0.11 v -3.28 c 0,-0.02 0.02,-0.04 0.04,-0.04 h 1.65 c 0.07,0 0.11,-0.04 0.11,-0.11 v -0.46 c 0,-0.06 -0.04,-0.11 -0.11,-0.11 h -1.65 c -0.02,0 -0.04,-0.02 -0.04,-0.04 v -2.67 c 0,-0.02 0.02,-0.04 0.04,-0.04 h 2.62 c 0.07,-0.01 0.12,-0.06 0.12,-0.12 z m 2.81,7.06 c 1.1,0 1.8,-0.66 1.8,-1.65 v -2.33 c 0,-0.97 -0.71,-1.65 -1.8,-1.65 -1.09,0 -1.79,0.68 -1.79,1.65 v 2.33 c 0,0.99 0.7,1.65 1.79,1.65 z m 0,-0.67 c -0.58,0 -0.98,-0.42 -0.98,-1.02 v -2.23 c 0,-0.61 0.4,-1.03 0.98,-1.03 0.58,0 0.99,0.42 0.99,1.03 v 2.23 c 0,0.6 -0.41,1.02 -0.99,1.02 z m 5.5,-4.91 c -0.55,0 -0.89,0.33 -1.08,0.82 -0.02,0.03 -0.06,0.03 -0.06,-0.01 V 45.11 C 174.05,45.05 174,45 173.94,45 h -0.58 c -0.07,0 -0.11,0.04 -0.11,0.11 v 5.23 c 0,0.06 0.05,0.11 0.11,0.11 h 0.58 c 0.07,0 0.11,-0.04 0.11,-0.11 v -3.23 c 0,-0.73 0.39,-1.3 0.93,-1.33 0.18,-0.03 0.35,-0.01 0.48,0.04 0.08,0.02 0.14,0.01 0.15,-0.06 l 0.12,-0.55 c 0.01,-0.05 0,-0.11 -0.06,-0.14 -0.11,-0.07 -0.26,-0.12 -0.48,-0.12 z m 3.55,5.55 c 1.06,0 1.73,-0.57 1.73,-1.46 0,-1.01 -0.87,-1.36 -1.53,-1.63 -0.59,-0.24 -1.12,-0.44 -1.12,-1 0,-0.46 0.34,-0.84 0.9,-0.84 0.56,0 0.93,0.37 0.93,0.84 v 0.09 c 0,0.05 0.04,0.09 0.11,0.09 h 0.52 c 0.07,0 0.11,-0.04 0.11,-0.11 v -0.03 c 0,-0.89 -0.64,-1.49 -1.69,-1.49 -1,0 -1.66,0.56 -1.66,1.48 0,1.02 0.81,1.35 1.45,1.59 0.58,0.24 1.16,0.44 1.16,1.04 0,0.48 -0.35,0.84 -0.91,0.84 -0.58,0 -0.97,-0.37 -0.97,-0.82 V 49 c 0,-0.05 -0.05,-0.09 -0.11,-0.09 h -0.55 c -0.07,0 -0.11,0.04 -0.11,0.11 v 0.08 c 0,0.84 0.67,1.4 1.74,1.4 z m 5.04,0.03 c 1.1,0 1.8,-0.66 1.8,-1.49 v -0.12 c 0,-0.06 -0.05,-0.11 -0.11,-0.11 l -0.58,-0.01 c -0.07,0 -0.11,0.04 -0.11,0.11 v 0.08 c 0,0.46 -0.4,0.88 -0.99,0.88 -0.57,0 -0.97,-0.42 -0.97,-1.03 v -2.22 c 0,-0.61 0.4,-1.03 0.97,-1.03 0.59,0 0.99,0.42 0.99,0.88 v 0.09 c 0,0.05 0.04,0.1 0.11,0.1 l 0.58,-0.02 c 0.07,0 0.11,-0.04 0.11,-0.11 v -0.11 c 0,-0.81 -0.71,-1.49 -1.8,-1.49 -1.09,0 -1.78,0.69 -1.78,1.65 v 2.33 c 0,0.96 0.7,1.62 1.78,1.62 z m 5.5,-5.61 c -0.46,0 -0.89,0.16 -1.19,0.55 -0.02,0.03 -0.06,0.02 -0.06,-0.01 v -2.44 c 0,-0.06 -0.05,-0.11 -0.11,-0.11 h -0.58 c -0.07,0 -0.11,0.04 -0.11,0.11 v 7.32 c 0,0.06 0.05,0.11 0.11,0.11 h 0.58 c 0.07,0 0.11,-0.04 0.11,-0.11 v -3.58 c 0,-0.72 0.38,-1.16 0.98,-1.16 0.58,0 0.91,0.41 0.91,1.11 v 3.64 c 0,0.06 0.05,0.11 0.11,0.11 h 0.58 c 0.07,0 0.11,-0.04 0.11,-0.11 v -3.7 c 0.02,-1.09 -0.5,-1.73 -1.44,-1.73 z m 5.91,0.19 v 3.58 c 0,0.72 -0.37,1.16 -0.97,1.16 -0.58,0 -0.91,-0.36 -0.91,-1.09 V 45.1 c 0,-0.06 -0.05,-0.11 -0.11,-0.11 h -0.58 c -0.07,0 -0.11,0.04 -0.11,0.11 v 3.83 c 0,1.1 0.63,1.58 1.49,1.58 0.49,0 0.89,-0.16 1.14,-0.56 0.02,-0.03 0.06,-0.03 0.06,0.01 v 0.36 c 0,0.06 0.05,0.11 0.11,0.11 h 0.58 c 0.07,0 0.11,-0.04 0.11,-0.11 v -5.23 c 0,-0.06 -0.05,-0.11 -0.11,-0.11 h -0.58 c -0.07,0.02 -0.12,0.06 -0.12,0.13 z m 4.7,-0.19 c -0.46,0 -0.89,0.16 -1.19,0.55 -0.02,0.03 -0.06,0.02 -0.06,-0.01 v -0.35 c 0,-0.06 -0.05,-0.11 -0.11,-0.11 h -0.58 c -0.07,0 -0.11,0.04 -0.11,0.11 v 5.23 c 0,0.06 0.04,0.11 0.11,0.11 h 0.58 c 0.07,0 0.11,-0.04 0.11,-0.11 v -3.58 c 0,-0.72 0.38,-1.16 0.98,-1.16 0.58,0 0.91,0.41 0.91,1.11 v 3.64 c 0,0.06 0.05,0.11 0.11,0.11 h 0.58 c 0.07,0 0.11,-0.04 0.11,-0.11 v -3.7 c 0.02,-1.09 -0.5,-1.73 -1.44,-1.73 z m 5.92,0.19 v 0.33 c 0,0.04 -0.02,0.05 -0.06,0.01 -0.26,-0.37 -0.7,-0.54 -1.14,-0.54 -0.97,0 -1.55,0.66 -1.55,1.65 v 2.27 c 0,0.97 0.57,1.65 1.55,1.65 0.43,0 0.87,-0.17 1.14,-0.55 0.03,-0.03 0.06,-0.01 0.06,0.02 v 0.32 c 0,1.08 -0.38,1.7 -1.64,1.67 -0.07,0 -0.11,0.04 -0.11,0.11 v 0.46 c 0,0.06 0.03,0.11 0.11,0.12 1.86,0.08 2.45,-0.86 2.45,-2.29 v -5.23 c 0,-0.06 -0.05,-0.11 -0.11,-0.11 h -0.58 c -0.08,0 -0.12,0.04 -0.12,0.11 z m -0.96,4.7 c -0.57,0 -0.98,-0.42 -0.98,-1.02 v -2.17 c 0,-0.61 0.41,-1.03 0.98,-1.03 0.57,0 0.96,0.42 0.96,1.03 v 2.17 c 0,0.6 -0.39,1.02 -0.96,1.02 z m 12.72,-6.34 v -0.45 c 0,-0.06 -0.05,-0.11 -0.11,-0.11 h -3.39 c -0.07,0 -0.11,0.04 -0.11,0.11 v 7.32 c 0,0.06 0.05,0.11 0.11,0.11 h 3.39 c 0.07,0 0.11,-0.04 0.11,-0.11 v -0.45 c 0,-0.06 -0.05,-0.11 -0.11,-0.11 h -2.65 c -0.02,0 -0.04,-0.02 -0.04,-0.04 v -2.68 c 0,-0.02 0.02,-0.04 0.04,-0.04 h 1.67 c 0.07,0 0.11,-0.04 0.11,-0.11 v -0.46 c 0,-0.06 -0.05,-0.11 -0.11,-0.11 h -1.67 c -0.02,0 -0.04,-0.02 -0.04,-0.04 v -2.67 c 0,-0.02 0.02,-0.04 0.04,-0.04 h 2.65 c 0.06,-0.01 0.11,-0.06 0.11,-0.12 z m 2.4,6.97 h 0.68 c 0.07,0 0.11,-0.03 0.13,-0.1 l 1.4,-5.22 C 222.2,45.06 222.17,45 222.09,45 h -0.66 c -0.07,0 -0.11,0.03 -0.12,0.1 l -0.97,4.16 c -0.01,0.04 -0.03,0.04 -0.05,0 L 219.31,45.1 C 219.3,45.04 219.25,45 219.18,45 h -0.66 c -0.08,0 -0.11,0.04 -0.09,0.12 l 1.41,5.23 c 0.02,0.06 0.07,0.09 0.13,0.09 z m 5.39,-5.53 c -0.95,0 -1.68,0.56 -1.76,1.42 -0.01,0.06 0.03,0.11 0.1,0.11 l 0.63,0.01 c 0.07,0 0.11,-0.03 0.12,-0.11 0.05,-0.45 0.42,-0.76 0.88,-0.76 0.59,0 0.96,0.47 0.96,1.18 v 0.42 c 0,0.02 -0.02,0.04 -0.05,0.04 h -0.79 c -1.13,0 -2.03,0.47 -2.03,1.76 0,1.28 0.9,1.54 1.55,1.54 0.51,0 0.96,-0.15 1.26,-0.52 0.03,-0.03 0.06,-0.02 0.06,0.01 v 0.31 c 0,0.06 0.05,0.11 0.11,0.11 h 0.58 c 0.07,0 0.11,-0.04 0.11,-0.11 v -3.63 c 0.02,-1.07 -0.67,-1.78 -1.73,-1.78 z m -0.2,4.95 c -0.5,0 -0.89,-0.28 -0.89,-0.94 0,-0.74 0.49,-1.09 1.19,-1.09 h 0.8 c 0.02,0 0.05,0.02 0.05,0.04 v 0.9 c -0.01,0.74 -0.58,1.09 -1.15,1.09 z m 3.8,0.58 h 0.58 c 0.07,0 0.11,-0.04 0.11,-0.11 v -7.32 c 0,-0.06 -0.05,-0.11 -0.11,-0.11 h -0.58 c -0.07,0 -0.11,0.04 -0.11,0.11 v 7.32 c -0.01,0.07 0.04,0.11 0.11,0.11 z m 5.14,-5.33 v 3.58 c 0,0.72 -0.36,1.16 -0.97,1.16 -0.58,0 -0.91,-0.36 -0.91,-1.09 V 45.1 c 0,-0.06 -0.05,-0.11 -0.11,-0.11 h -0.58 c -0.07,0 -0.11,0.04 -0.11,0.11 v 3.83 c 0,1.1 0.63,1.58 1.49,1.58 0.49,0 0.89,-0.16 1.14,-0.56 0.02,-0.03 0.06,-0.03 0.06,0.01 v 0.36 c 0,0.06 0.05,0.11 0.11,0.11 h 0.58 c 0.07,0 0.11,-0.04 0.11,-0.11 v -5.23 c 0,-0.06 -0.05,-0.11 -0.11,-0.11 h -0.58 c -0.07,0.02 -0.12,0.06 -0.12,0.13 z m 4.4,-0.2 c -0.95,0 -1.68,0.56 -1.76,1.42 -0.01,0.06 0.03,0.11 0.1,0.11 l 0.63,0.01 c 0.07,0 0.11,-0.03 0.13,-0.11 0.04,-0.45 0.42,-0.76 0.88,-0.76 0.59,0 0.96,0.47 0.96,1.18 v 0.42 c 0,0.02 -0.02,0.04 -0.04,0.04 h -0.79 c -1.13,0 -2.03,0.47 -2.03,1.76 0,1.28 0.9,1.54 1.55,1.54 0.51,0 0.96,-0.15 1.26,-0.52 0.03,-0.03 0.06,-0.02 0.06,0.01 v 0.31 c 0,0.06 0.05,0.11 0.11,0.11 h 0.58 c 0.07,0 0.11,-0.04 0.11,-0.11 v -3.63 c -0.01,-1.07 -0.69,-1.78 -1.75,-1.78 z m -0.21,4.95 c -0.5,0 -0.89,-0.28 -0.89,-0.94 0,-0.74 0.49,-1.09 1.19,-1.09 h 0.8 c 0.02,0 0.04,0.02 0.04,0.04 v 0.9 c 0,0.74 -0.57,1.09 -1.14,1.09 z m 5.77,-4.4 v -0.35 c 0,-0.06 -0.05,-0.11 -0.11,-0.11 h -0.87 c -0.02,0 -0.05,-0.02 -0.05,-0.04 v -1.21 c 0,-0.06 -0.04,-0.11 -0.11,-0.11 h -0.57 c -0.07,0 -0.11,0.04 -0.11,0.11 v 1.21 c 0,0.02 -0.02,0.04 -0.04,0.04 h -0.45 c -0.07,0 -0.11,0.04 -0.11,0.11 v 0.35 c 0,0.06 0.05,0.11 0.11,0.11 h 0.45 c 0.02,0 0.04,0.02 0.04,0.04 v 3.52 c 0,1.09 0.56,1.31 1.37,1.31 h 0.29 c 0.07,0 0.11,-0.04 0.11,-0.11 v -0.46 c 0,-0.06 -0.05,-0.11 -0.11,-0.11 h -0.11 c -0.48,0.01 -0.74,-0.17 -0.74,-0.86 v -3.29 c 0,-0.02 0.02,-0.04 0.05,-0.04 h 0.87 c 0.05,0 0.09,-0.04 0.09,-0.11 z m 2.03,-1.43 c 0.32,0 0.55,-0.24 0.55,-0.57 0,-0.31 -0.23,-0.55 -0.55,-0.55 -0.33,0 -0.57,0.24 -0.57,0.55 0,0.33 0.24,0.57 0.57,0.57 z m -0.3,6.41 h 0.58 c 0.07,0 0.11,-0.04 0.11,-0.11 V 45.1 c 0,-0.06 -0.05,-0.11 -0.11,-0.11 h -0.58 c -0.07,0 -0.11,0.04 -0.11,0.11 v 5.23 c 0,0.07 0.04,0.11 0.11,0.11 z m 4.22,0.09 c 1.1,0 1.8,-0.66 1.8,-1.65 v -2.33 c 0,-0.97 -0.71,-1.65 -1.8,-1.65 -1.1,0 -1.79,0.68 -1.79,1.65 v 2.33 c 0,0.99 0.7,1.65 1.79,1.65 z m 0,-0.67 c -0.58,0 -0.98,-0.42 -0.98,-1.02 v -2.23 c 0,-0.61 0.4,-1.03 0.98,-1.03 0.58,0 0.99,0.42 0.99,1.03 v 2.23 c 0.01,0.6 -0.4,1.02 -0.99,1.02 z m 5.6,-4.94 c -0.46,0 -0.89,0.16 -1.19,0.55 -0.02,0.03 -0.06,0.02 -0.06,-0.01 v -0.35 c 0,-0.06 -0.04,-0.11 -0.11,-0.11 h -0.58 c -0.07,0 -0.11,0.04 -0.11,0.11 v 5.23 c 0,0.06 0.05,0.11 0.11,0.11 h 0.58 c 0.07,0 0.11,-0.04 0.11,-0.11 v -3.58 c 0,-0.72 0.38,-1.16 0.98,-1.16 0.58,0 0.91,0.41 0.91,1.11 v 3.64 c 0,0.06 0.05,0.11 0.11,0.11 h 0.58 c 0.07,0 0.11,-0.04 0.11,-0.11 v -3.7 c 0.02,-1.09 -0.5,-1.73 -1.44,-1.73 z m 12.74,3.48 c 0,-0.9 -0.39,-1.5 -1,-1.83 -0.02,-0.01 -0.02,-0.03 0.01,-0.04 0.63,-0.29 0.95,-0.84 0.95,-1.65 0,-1.28 -0.81,-1.97 -2.1,-1.97 h -1.64 c -0.07,0 -0.11,0.04 -0.11,0.11 v 7.32 c 0,0.06 0.05,0.11 0.11,0.11 h 1.74 c 1.23,-0.01 2.05,-0.74 2.04,-2.05 z m -3.05,-4.82 h 0.9 c 0.82,0 1.3,0.51 1.3,1.37 0,0.83 -0.48,1.31 -1.3,1.31 h -0.9 c -0.02,0 -0.04,-0.02 -0.04,-0.04 v -2.59 c 0,-0.03 0.02,-0.05 0.04,-0.05 z m 0.95,6.19 h -0.95 c -0.02,0 -0.04,-0.02 -0.04,-0.04 v -2.84 c 0,-0.02 0.02,-0.04 0.04,-0.04 h 0.95 c 0.81,0 1.29,0.55 1.29,1.47 0,0.92 -0.48,1.45 -1.29,1.45 z m 7.27,-1.87 v -1.34 c 0,-0.97 -0.68,-1.65 -1.79,-1.65 -1.08,0 -1.78,0.68 -1.78,1.65 v 2.32 c 0,0.99 0.7,1.65 1.78,1.65 1.01,0 1.63,-0.54 1.76,-1.38 0.01,-0.06 -0.03,-0.12 -0.1,-0.12 l -0.57,-0.02 c -0.07,0 -0.1,0.03 -0.13,0.1 -0.1,0.44 -0.46,0.75 -0.96,0.75 -0.57,0 -0.97,-0.42 -0.97,-1.02 v -0.79 c 0,-0.02 0.02,-0.04 0.05,-0.04 h 2.6 c 0.06,0 0.11,-0.04 0.11,-0.11 z m -1.79,-2.32 c 0.59,0 0.99,0.42 0.99,1.03 v 0.72 c 0,0.02 -0.02,0.04 -0.05,0.04 h -1.87 c -0.02,0 -0.05,-0.02 -0.05,-0.04 v -0.72 c 0.01,-0.61 0.41,-1.03 0.98,-1.03 z m 5.42,-0.63 c -0.55,0 -0.89,0.33 -1.08,0.82 -0.02,0.03 -0.06,0.03 -0.06,-0.01 v -0.65 c 0,-0.06 -0.05,-0.11 -0.11,-0.11 h -0.58 c -0.07,0 -0.11,0.04 -0.11,0.11 v 5.23 c 0,0.06 0.05,0.11 0.11,0.11 h 0.58 c 0.07,0 0.11,-0.04 0.11,-0.11 v -3.23 c 0,-0.73 0.39,-1.3 0.94,-1.33 0.18,-0.03 0.35,-0.01 0.48,0.04 0.08,0.02 0.14,0.01 0.15,-0.06 l 0.13,-0.55 c 0.01,-0.05 0,-0.11 -0.06,-0.14 -0.12,-0.07 -0.27,-0.12 -0.5,-0.12 z m 3.67,-0.04 c -0.95,0 -1.68,0.56 -1.76,1.42 -0.01,0.06 0.03,0.11 0.1,0.11 l 0.63,0.01 c 0.07,0 0.11,-0.03 0.12,-0.11 0.05,-0.45 0.42,-0.76 0.88,-0.76 0.59,0 0.96,0.47 0.96,1.18 v 0.42 c 0,0.02 -0.02,0.04 -0.05,0.04 h -0.79 c -1.13,0 -2.03,0.47 -2.03,1.76 0,1.28 0.9,1.54 1.55,1.54 0.51,0 0.96,-0.15 1.26,-0.52 0.03,-0.03 0.06,-0.02 0.06,0.01 v 0.31 c 0,0.06 0.05,0.11 0.11,0.11 h 0.58 c 0.07,0 0.11,-0.04 0.11,-0.11 v -3.63 c 0.01,-1.07 -0.67,-1.78 -1.73,-1.78 z m -0.21,4.95 c -0.5,0 -0.89,-0.28 -0.89,-0.94 0,-0.74 0.49,-1.09 1.19,-1.09 h 0.8 c 0.02,0 0.05,0.02 0.05,0.04 v 0.9 c 0,0.74 -0.58,1.09 -1.15,1.09 z m 5.78,-4.4 v -0.35 c 0,-0.06 -0.05,-0.11 -0.11,-0.11 h -0.87 c -0.02,0 -0.05,-0.02 -0.05,-0.04 v -1.21 c 0,-0.06 -0.05,-0.11 -0.11,-0.11 h -0.57 c -0.07,0 -0.11,0.04 -0.11,0.11 v 1.21 c 0,0.02 -0.02,0.04 -0.05,0.04 h -0.44 c -0.07,0 -0.11,0.04 -0.11,0.11 v 0.35 c 0,0.06 0.05,0.11 0.11,0.11 h 0.44 c 0.02,0 0.05,0.02 0.05,0.04 v 3.52 c 0,1.09 0.56,1.31 1.37,1.31 h 0.29 c 0.07,0 0.11,-0.04 0.11,-0.11 v -0.46 c 0,-0.06 -0.05,-0.11 -0.11,-0.11 h -0.11 c -0.48,0.01 -0.74,-0.17 -0.74,-0.86 v -3.29 c 0,-0.02 0.02,-0.04 0.05,-0.04 h 0.87 c 0.04,0 0.09,-0.04 0.09,-0.11 z m 4.24,-0.35 v 3.58 c 0,0.72 -0.36,1.16 -0.97,1.16 -0.58,0 -0.91,-0.36 -0.91,-1.09 V 45.1 c 0,-0.06 -0.04,-0.11 -0.11,-0.11 h -0.58 c -0.07,0 -0.11,0.04 -0.11,0.11 v 3.83 c 0,1.1 0.63,1.58 1.49,1.58 0.49,0 0.89,-0.16 1.14,-0.56 0.02,-0.03 0.06,-0.03 0.06,0.01 v 0.36 c 0,0.06 0.05,0.11 0.11,0.11 h 0.58 c 0.07,0 0.11,-0.04 0.11,-0.11 v -5.23 c 0,-0.06 -0.05,-0.11 -0.11,-0.11 h -0.58 c -0.07,0.02 -0.12,0.06 -0.12,0.13 z m 4.71,-0.19 c -0.46,0 -0.89,0.16 -1.19,0.55 -0.02,0.03 -0.06,0.02 -0.06,-0.01 v -0.35 c 0,-0.06 -0.05,-0.11 -0.11,-0.11 h -0.58 c -0.07,0 -0.11,0.04 -0.11,0.11 v 5.23 c 0,0.06 0.05,0.11 0.11,0.11 h 0.58 c 0.07,0 0.11,-0.04 0.11,-0.11 v -3.58 c 0,-0.72 0.38,-1.16 0.98,-1.16 0.58,0 0.91,0.41 0.91,1.11 v 3.64 c 0,0.06 0.04,0.11 0.11,0.11 h 0.58 c 0.07,0 0.11,-0.04 0.11,-0.11 v -3.7 c 0.01,-1.09 -0.51,-1.73 -1.44,-1.73 z m 5.91,0.19 v 0.33 c 0,0.04 -0.02,0.05 -0.06,0.01 -0.26,-0.37 -0.7,-0.54 -1.14,-0.54 -0.97,0 -1.55,0.66 -1.55,1.65 v 2.27 c 0,0.97 0.57,1.65 1.55,1.65 0.43,0 0.87,-0.17 1.14,-0.55 0.03,-0.03 0.06,-0.01 0.06,0.02 v 0.32 c 0,1.08 -0.38,1.7 -1.64,1.67 -0.07,0 -0.11,0.04 -0.11,0.11 v 0.46 c 0,0.06 0.03,0.11 0.11,0.12 1.86,0.08 2.45,-0.86 2.45,-2.29 v -5.23 c 0,-0.06 -0.04,-0.11 -0.11,-0.11 h -0.58 c -0.08,0 -0.12,0.04 -0.12,0.11 z m -0.96,4.7 c -0.57,0 -0.98,-0.42 -0.98,-1.02 v -2.17 c 0,-0.61 0.41,-1.03 0.98,-1.03 0.57,0 0.96,0.42 0.96,1.03 v 2.17 c 0,0.6 -0.39,1.02 -0.96,1.02 z"
     id="path1" />
  <path
     d="m 168.71,31.45 c 0,-1.43 -0.6,-2.38 -1.6,-2.87 -0.04,-0.02 -0.02,-0.05 0.03,-0.07 0.99,-0.44 1.51,-1.31 1.51,-2.6 0,-1.96 -1.18,-3.04 -3.12,-3.04 h -2.41 c -0.11,0 -0.18,0.07 -0.18,0.17 v 11.41 c 0,0.1 0.07,0.17 0.18,0.17 h 2.52 c 1.88,0 3.09,-1.14 3.07,-3.17 z m -4.75,-7.79 h 1.6 c 1.37,0 2.18,0.86 2.18,2.3 0,1.41 -0.81,2.23 -2.18,2.23 h -1.6 c -0.03,0 -0.07,-0.03 -0.07,-0.07 v -4.39 c 0,-0.03 0.03,-0.07 0.07,-0.07 z m 1.64,10.15 h -1.64 c -0.03,0 -0.07,-0.03 -0.07,-0.07 v -4.78 c 0,-0.03 0.04,-0.07 0.07,-0.07 h 1.64 c 1.37,0 2.18,0.92 2.18,2.48 0,1.55 -0.81,2.44 -2.18,2.44 z m 6.9,-9.27 c 0.37,0 0.63,-0.29 0.63,-0.67 0,-0.39 -0.26,-0.67 -0.63,-0.67 -0.39,0 -0.67,0.29 -0.67,0.67 0,0.38 0.28,0.67 0.67,0.67 z m 2.14,0 c 0.37,0 0.63,-0.29 0.63,-0.67 0,-0.39 -0.26,-0.67 -0.63,-0.67 -0.39,0 -0.67,0.29 -0.67,0.67 0,0.38 0.29,0.67 0.67,0.67 z m 0.53,1.79 v 5.6 c 0,1.26 -0.63,2.01 -1.66,2.01 -1,0 -1.58,-0.62 -1.58,-1.86 v -5.75 c 0,-0.1 -0.07,-0.17 -0.18,-0.17 h -0.58 c -0.11,0 -0.18,0.07 -0.18,0.17 v 5.95 c 0,1.68 0.93,2.45 2.29,2.45 0.77,0 1.41,-0.29 1.8,-0.92 0.04,-0.05 0.09,-0.03 0.09,0.03 v 0.6 c 0,0.1 0.07,0.17 0.18,0.17 h 0.58 c 0.11,0 0.18,-0.07 0.18,-0.17 v -8.12 c 0,-0.1 -0.07,-0.17 -0.18,-0.17 h -0.58 c -0.11,0.01 -0.18,0.08 -0.18,0.18 z m 6.3,-0.23 c -0.83,0 -1.39,0.5 -1.71,1.27 -0.03,0.07 -0.09,0.07 -0.09,0 v -1.04 c 0,-0.1 -0.07,-0.17 -0.18,-0.17 h -0.58 c -0.11,0 -0.18,0.07 -0.18,0.17 v 8.12 c 0,0.1 0.07,0.17 0.18,0.17 h 0.58 c 0.11,0 0.18,-0.07 0.18,-0.17 v -5.12 c 0,-1.27 0.65,-2.25 1.59,-2.28 0.28,-0.02 0.51,0.02 0.69,0.08 0.12,0.05 0.19,0.03 0.23,-0.08 l 0.14,-0.57 c 0.02,-0.08 0,-0.17 -0.09,-0.22 -0.2,-0.1 -0.41,-0.16 -0.76,-0.16 z m 5.23,8.65 c 1.6,0 2.64,-1.02 2.64,-2.5 v -3.71 c 0,-1.48 -1.04,-2.52 -2.64,-2.52 -1.57,0 -2.61,1.04 -2.61,2.52 v 3.71 c 0,1.48 1.04,2.5 2.61,2.5 z m 0,-0.79 c -0.99,0 -1.67,-0.72 -1.67,-1.76 v -3.6 c 0,-1.06 0.69,-1.78 1.67,-1.78 1,0 1.71,0.72 1.71,1.78 v 3.61 c -0.01,1.03 -0.71,1.75 -1.71,1.75 z m 11.76,-10.45 h 0.23 c 0.11,0 0.18,-0.05 0.18,-0.17 l 0.02,-0.44 c 0,-0.1 -0.07,-0.17 -0.18,-0.17 h -0.26 c -1.66,0 -2.24,0.91 -2.24,2.73 v 0.62 c 0,0.03 -0.04,0.07 -0.07,0.07 h -0.74 c -0.1,0 -0.18,0.07 -0.18,0.17 v 0.37 c 0,0.1 0.07,0.17 0.18,0.17 h 0.74 c 0.03,0 0.07,0.03 0.07,0.07 v 7.51 c 0,0.1 0.07,0.17 0.18,0.17 h 0.58 c 0.11,0 0.18,-0.07 0.18,-0.17 v -7.51 c 0,-0.03 0.04,-0.07 0.07,-0.07 h 1.44 c 0.11,0 0.18,-0.07 0.18,-0.17 v -0.37 c 0,-0.1 -0.07,-0.17 -0.18,-0.17 h -1.44 c -0.04,0 -0.07,-0.03 -0.07,-0.07 v -0.6 c -0.01,-1.26 0.25,-1.97 1.31,-1.97 z m 4.08,1.03 c 0.37,0 0.63,-0.29 0.63,-0.67 0,-0.39 -0.26,-0.67 -0.63,-0.67 -0.39,0 -0.67,0.29 -0.67,0.67 0,0.38 0.28,0.67 0.67,0.67 z m 2.15,0 c 0.37,0 0.63,-0.29 0.63,-0.67 0,-0.39 -0.26,-0.67 -0.63,-0.67 -0.39,0 -0.67,0.29 -0.67,0.67 0,0.38 0.28,0.67 0.67,0.67 z m 0.53,1.79 v 5.6 c 0,1.26 -0.63,2.01 -1.65,2.01 -1,0 -1.59,-0.62 -1.59,-1.86 v -5.75 c 0,-0.1 -0.07,-0.17 -0.18,-0.17 h -0.58 c -0.11,0 -0.18,0.07 -0.18,0.17 v 5.95 c 0,1.68 0.93,2.45 2.29,2.45 0.77,0 1.41,-0.29 1.8,-0.92 0.04,-0.05 0.09,-0.03 0.09,0.03 v 0.6 c 0,0.1 0.07,0.17 0.18,0.17 h 0.58 c 0.11,0 0.18,-0.07 0.18,-0.17 v -8.12 c 0,-0.1 -0.07,-0.17 -0.18,-0.17 h -0.58 c -0.11,0.01 -0.18,0.08 -0.18,0.18 z m 6.3,-0.23 c -0.83,0 -1.39,0.5 -1.71,1.27 -0.04,0.07 -0.09,0.07 -0.09,0 v -1.04 c 0,-0.1 -0.07,-0.17 -0.18,-0.17 h -0.58 c -0.11,0 -0.18,0.07 -0.18,0.17 v 8.12 c 0,0.1 0.07,0.17 0.18,0.17 h 0.58 c 0.11,0 0.18,-0.07 0.18,-0.17 v -5.12 c 0,-1.27 0.65,-2.25 1.59,-2.28 0.28,-0.02 0.51,0.02 0.69,0.08 0.12,0.05 0.19,0.03 0.23,-0.08 l 0.14,-0.57 c 0.02,-0.08 0,-0.17 -0.09,-0.22 -0.2,-0.1 -0.41,-0.16 -0.76,-0.16 z m 9.79,-3.26 h -2.75 c -0.11,0 -0.18,0.07 -0.18,0.17 v 11.44 c 0,0.1 0.07,0.17 0.18,0.17 h 0.58 c 0.11,0 0.18,-0.07 0.18,-0.17 v -5.22 c 0,-0.03 0.04,-0.07 0.07,-0.07 h 1.96 c 1.62,0 2.71,-1.24 2.71,-3.14 0,-1.89 -1.11,-3.18 -2.75,-3.18 z m -0.11,5.59 h -1.81 c -0.04,0 -0.07,-0.03 -0.07,-0.07 v -4.65 c 0,-0.03 0.04,-0.07 0.07,-0.07 h 1.81 c 1.15,0 1.92,0.94 1.92,2.4 0,1.45 -0.77,2.39 -1.92,2.39 z m 7.52,6.32 c 1.6,0 2.64,-1.02 2.64,-2.5 v -3.71 c 0,-1.48 -1.04,-2.52 -2.64,-2.52 -1.57,0 -2.61,1.04 -2.61,2.52 v 3.71 c 0,1.48 1.04,2.5 2.61,2.5 z m 0,-0.79 c -0.99,0 -1.67,-0.72 -1.67,-1.76 v -3.6 c 0,-1.06 0.69,-1.78 1.67,-1.78 1,0 1.71,0.72 1.71,1.78 v 3.61 c -0.01,1.03 -0.71,1.75 -1.71,1.75 z m 5.24,0.66 h 0.58 c 0.11,0 0.18,-0.07 0.18,-0.17 V 23.04 c 0,-0.1 -0.07,-0.17 -0.18,-0.17 h -0.58 c -0.11,0 -0.18,0.07 -0.18,0.17 v 11.41 c 0,0.1 0.07,0.17 0.18,0.17 z m 3.86,-10.15 c 0.42,0 0.7,-0.3 0.7,-0.74 0,-0.42 -0.28,-0.72 -0.7,-0.72 -0.41,0 -0.72,0.3 -0.72,0.72 0,0.44 0.31,0.74 0.72,0.74 z m -0.28,10.15 h 0.58 c 0.11,0 0.18,-0.07 0.18,-0.17 v -8.12 c 0,-0.1 -0.07,-0.17 -0.18,-0.17 h -0.58 c -0.11,0 -0.18,0.07 -0.18,0.17 v 8.12 c 0,0.1 0.07,0.17 0.18,0.17 z m 6.52,-7.92 v -0.37 c 0,-0.1 -0.07,-0.17 -0.18,-0.17 h -1.41 c -0.04,0 -0.07,-0.03 -0.07,-0.07 v -1.88 c 0,-0.1 -0.07,-0.17 -0.18,-0.17 h -0.56 c -0.1,0 -0.18,0.07 -0.18,0.17 v 1.88 c 0,0.03 -0.04,0.07 -0.07,0.07 h -0.72 c -0.11,0 -0.18,0.07 -0.18,0.17 v 0.37 c 0,0.1 0.07,0.17 0.18,0.17 h 0.72 c 0.04,0 0.07,0.03 0.07,0.07 v 5.62 c 0,1.69 0.81,2.06 1.99,2.06 h 0.35 c 0.1,0 0.18,-0.07 0.18,-0.17 V 34 c 0,-0.1 -0.07,-0.17 -0.18,-0.17 h -0.18 c -0.83,0 -1.25,-0.32 -1.25,-1.49 v -5.4 c 0,-0.03 0.04,-0.07 0.07,-0.07 h 1.41 c 0.11,0 0.19,-0.07 0.19,-0.17 z m 2.72,-2.23 c 0.42,0 0.7,-0.3 0.7,-0.74 0,-0.42 -0.28,-0.72 -0.7,-0.72 -0.41,0 -0.72,0.3 -0.72,0.72 0,0.44 0.31,0.74 0.72,0.74 z m -0.28,10.15 h 0.58 c 0.11,0 0.18,-0.07 0.18,-0.17 v -8.12 c 0,-0.1 -0.07,-0.17 -0.18,-0.17 h -0.58 c -0.11,0 -0.18,0.07 -0.18,0.17 v 8.12 c 0,0.1 0.07,0.17 0.18,0.17 z m 3.6,0 h 0.58 c 0.11,0 0.18,-0.07 0.18,-0.17 v -2.94 c 0,-0.03 0.02,-0.07 0.04,-0.08 l 1.48,-1.95 c 0.04,-0.03 0.09,-0.05 0.11,0.02 l 1.67,4.98 c 0.04,0.08 0.12,0.13 0.21,0.13 h 0.62 c 0.12,0 0.18,-0.07 0.14,-0.18 l -2.06,-5.7 c -0.02,-0.03 0,-0.07 0.02,-0.08 l 1.71,-2.28 c 0.09,-0.1 0.04,-0.2 -0.1,-0.2 h -0.62 c -0.09,0 -0.16,0.02 -0.21,0.1 l -2.91,3.84 c -0.04,0.05 -0.09,0.03 -0.09,-0.02 v -7.05 c 0,-0.1 -0.07,-0.17 -0.18,-0.17 h -0.58 c -0.1,0 -0.18,0.07 -0.18,0.17 v 11.41 c -0.01,0.1 0.06,0.17 0.17,0.17 z m 9.66,-8.59 c -1.34,0 -2.43,0.82 -2.57,2.08 -0.02,0.1 0.05,0.17 0.16,0.17 l 0.63,0.03 c 0.1,0 0.18,-0.05 0.18,-0.17 0.09,-0.79 0.78,-1.33 1.58,-1.33 1.04,0 1.64,0.82 1.64,2.05 v 0.77 c 0,0.03 -0.04,0.07 -0.07,0.07 h -1.37 c -1.69,0 -2.98,0.75 -2.98,2.7 0,1.93 1.29,2.35 2.29,2.35 0.85,0 1.58,-0.29 2.04,-0.94 0.03,-0.05 0.09,-0.03 0.09,0.03 v 0.6 c 0,0.1 0.07,0.17 0.18,0.17 h 0.58 c 0.11,0 0.18,-0.07 0.18,-0.17 v -5.62 c 0,-1.68 -0.95,-2.79 -2.56,-2.79 z m -0.31,7.93 c -0.86,0 -1.53,-0.47 -1.53,-1.63 0,-1.29 0.85,-1.9 2.03,-1.9 h 1.37 c 0.04,0 0.07,0.03 0.07,0.07 v 1.59 c -0.01,1.29 -0.99,1.87 -1.94,1.87 z m 8.28,-7.91 c -0.76,0 -1.43,0.29 -1.87,0.94 -0.04,0.07 -0.09,0.07 -0.09,0 v -0.65 c 0,-0.1 -0.07,-0.17 -0.18,-0.17 h -0.58 c -0.11,0 -0.18,0.07 -0.18,0.17 v 8.12 c 0,0.1 0.07,0.17 0.18,0.17 h 0.58 c 0.11,0 0.18,-0.07 0.18,-0.17 v -5.6 c 0,-1.26 0.63,-2.01 1.67,-2.01 1,0 1.59,0.7 1.59,1.91 v 5.7 c 0,0.1 0.07,0.17 0.18,0.17 h 0.58 c 0.11,0 0.18,-0.07 0.18,-0.17 v -5.79 c 0,-1.65 -0.81,-2.62 -2.24,-2.62 z m 7.32,-0.02 c -1.34,0 -2.43,0.82 -2.57,2.08 -0.02,0.1 0.05,0.17 0.16,0.17 l 0.63,0.03 c 0.11,0 0.18,-0.05 0.18,-0.17 0.09,-0.79 0.78,-1.33 1.58,-1.33 1.04,0 1.64,0.82 1.64,2.05 v 0.77 c 0,0.03 -0.04,0.07 -0.07,0.07 h -1.37 c -1.69,0 -2.98,0.75 -2.98,2.7 0,1.93 1.29,2.35 2.29,2.35 0.85,0 1.58,-0.29 2.04,-0.94 0.04,-0.05 0.09,-0.03 0.09,0.03 v 0.6 c 0,0.1 0.07,0.17 0.18,0.17 h 0.58 c 0.11,0 0.18,-0.07 0.18,-0.17 v -5.62 c -0.01,-1.68 -0.96,-2.79 -2.56,-2.79 z m -0.32,7.93 c -0.86,0 -1.53,-0.47 -1.53,-1.63 0,-1.29 0.84,-1.9 2.02,-1.9 h 1.37 c 0.04,0 0.07,0.03 0.07,0.07 v 1.59 c 0.01,1.29 -0.98,1.87 -1.93,1.87 z m 5.52,0.66 h 0.58 c 0.1,0 0.18,-0.07 0.18,-0.17 V 23.04 c 0,-0.1 -0.07,-0.17 -0.18,-0.17 h -0.58 c -0.1,0 -0.18,0.07 -0.18,0.17 v 11.41 c 0,0.1 0.07,0.17 0.18,0.17 z m 3.25,3.35 h 0.11 c 1.44,0 1.88,-0.39 2.47,-2.5 l 2.48,-9.11 c 0.04,-0.1 -0.02,-0.18 -0.14,-0.18 l -0.63,-0.02 c -0.11,0 -0.18,0.05 -0.19,0.15 l -1.73,6.98 c -0.02,0.07 -0.05,0.07 -0.07,0 l -1.74,-6.98 c -0.02,-0.08 -0.09,-0.15 -0.19,-0.15 h -0.62 c -0.12,0 -0.19,0.07 -0.16,0.18 l 2.25,8.22 c 0,0.03 0.02,0.07 0,0.1 -0.46,2.08 -0.72,2.52 -1.74,2.53 h -0.09 c -0.05,0 -0.11,0.07 -0.11,0.17 v 0.44 c 0,0.11 0.03,0.17 0.1,0.17 z m 9.35,-3.27 c 1.51,0 2.5,-0.89 2.5,-2.23 0,-1.54 -1.27,-2.05 -2.33,-2.47 -0.92,-0.39 -1.76,-0.72 -1.76,-1.69 0,-0.86 0.6,-1.48 1.55,-1.48 0.95,0 1.58,0.65 1.58,1.46 v 0.12 c 0,0.07 0.07,0.13 0.18,0.13 h 0.53 c 0.11,0 0.18,-0.07 0.18,-0.17 v -0.05 c 0,-1.31 -0.95,-2.23 -2.47,-2.23 -1.46,0 -2.45,0.86 -2.45,2.23 0,1.53 1.16,2.01 2.18,2.42 0.95,0.37 1.87,0.72 1.87,1.76 0,0.87 -0.62,1.48 -1.57,1.48 -0.99,0 -1.64,-0.62 -1.64,-1.41 v -0.13 c 0,-0.08 -0.07,-0.13 -0.18,-0.13 h -0.55 c -0.11,0 -0.18,0.07 -0.18,0.17 v 0.1 c 0.02,1.23 1.01,2.12 2.56,2.12 z m 9.87,-4.16 v -2 c 0,-1.48 -1.04,-2.52 -2.62,-2.52 -1.57,0 -2.61,1.04 -2.61,2.52 v 3.71 c 0,1.48 1.04,2.5 2.61,2.5 1.39,0 2.33,-0.77 2.55,-1.98 0,-0.02 0,-0.05 0,-0.07 0.02,-0.08 -0.07,-0.13 -0.16,-0.13 l -0.56,-0.03 c -0.11,0 -0.16,0.05 -0.19,0.15 -0.19,0.75 -0.79,1.27 -1.64,1.27 -0.99,0 -1.67,-0.72 -1.67,-1.76 v -1.43 c 0,-0.03 0.04,-0.07 0.07,-0.07 h 4.05 c 0.1,0.01 0.17,-0.06 0.17,-0.16 z m -2.63,-3.72 c 1,0 1.69,0.72 1.69,1.78 v 1.27 c 0,0.03 -0.03,0.07 -0.07,0.07 h -3.22 c -0.04,0 -0.07,-0.03 -0.07,-0.07 V 28.6 c 0,-1.06 0.69,-1.78 1.67,-1.78 z"
     id="path2" />
</svg>
