<?xml version="1.0" encoding="utf-8"?>
<svg viewBox="155.226 0 158.403 53.346" style="enable-background:new 0 0 312.88 81;" xmlns="http://www.w3.org/2000/svg">
  <defs>
    <style type="text/css">
	.st0{fill:#C01718;}
	.st1{clip-path:url(#SVGID_00000015321342622894311960000001938989380830437509_);fill:#C00000;stroke:#C00000;}
</style>
  </defs>
  <g>
    <path d="M166.88,43.47v-0.45c0-0.06-0.05-0.11-0.11-0.11h-3.36c-0.07,0-0.11,0.04-0.11,0.11v7.32c0,0.06,0.05,0.11,0.11,0.11h0.58&#10;&#9;&#9;c0.07,0,0.11-0.04,0.11-0.11v-3.28c0-0.02,0.02-0.04,0.04-0.04h1.65c0.07,0,0.11-0.04,0.11-0.11v-0.46c0-0.06-0.04-0.11-0.11-0.11&#10;&#9;&#9;h-1.65c-0.02,0-0.04-0.02-0.04-0.04v-2.67c0-0.02,0.02-0.04,0.04-0.04h2.62C166.83,43.58,166.88,43.53,166.88,43.47L166.88,43.47z&#10;&#9;&#9; M169.69,50.53c1.1,0,1.8-0.66,1.8-1.65v-2.33c0-0.97-0.71-1.65-1.8-1.65c-1.09,0-1.79,0.68-1.79,1.65v2.33&#10;&#9;&#9;C167.9,49.87,168.6,50.53,169.69,50.53L169.69,50.53z M169.69,49.86c-0.58,0-0.98-0.42-0.98-1.02v-2.23c0-0.61,0.4-1.03,0.98-1.03&#10;&#9;&#9;c0.58,0,0.99,0.42,0.99,1.03v2.23C170.68,49.44,170.27,49.86,169.69,49.86L169.69,49.86z M175.19,44.95&#10;&#9;&#9;c-0.55,0-0.89,0.33-1.08,0.82c-0.02,0.03-0.06,0.03-0.06-0.01v-0.65c0-0.06-0.05-0.11-0.11-0.11h-0.58c-0.07,0-0.11,0.04-0.11,0.11&#10;&#9;&#9;v5.23c0,0.06,0.05,0.11,0.11,0.11h0.58c0.07,0,0.11-0.04,0.11-0.11v-3.23c0-0.73,0.39-1.3,0.93-1.33c0.18-0.03,0.35-0.01,0.48,0.04&#10;&#9;&#9;c0.08,0.02,0.14,0.01,0.15-0.06l0.12-0.55c0.01-0.05,0-0.11-0.06-0.14C175.56,45,175.41,44.95,175.19,44.95L175.19,44.95z&#10;&#9;&#9; M178.74,50.5c1.06,0,1.73-0.57,1.73-1.46c0-1.01-0.87-1.36-1.53-1.63c-0.59-0.24-1.12-0.44-1.12-1c0-0.46,0.34-0.84,0.9-0.84&#10;&#9;&#9;c0.56,0,0.93,0.37,0.93,0.84v0.09c0,0.05,0.04,0.09,0.11,0.09h0.52c0.07,0,0.11-0.04,0.11-0.11v-0.03c0-0.89-0.64-1.49-1.69-1.49&#10;&#9;&#9;c-1,0-1.66,0.56-1.66,1.48c0,1.02,0.81,1.35,1.45,1.59c0.58,0.24,1.16,0.44,1.16,1.04c0,0.48-0.35,0.84-0.91,0.84&#10;&#9;&#9;c-0.58,0-0.97-0.37-0.97-0.82V49c0-0.05-0.05-0.09-0.11-0.09h-0.55c-0.07,0-0.11,0.04-0.11,0.11v0.08&#10;&#9;&#9;C177,49.94,177.67,50.5,178.74,50.5L178.74,50.5z M183.78,50.53c1.1,0,1.8-0.66,1.8-1.49v-0.12c0-0.06-0.05-0.11-0.11-0.11&#10;&#9;&#9;l-0.58-0.01c-0.07,0-0.11,0.04-0.11,0.11v0.08c0,0.46-0.4,0.88-0.99,0.88c-0.57,0-0.97-0.42-0.97-1.03v-2.22&#10;&#9;&#9;c0-0.61,0.4-1.03,0.97-1.03c0.59,0,0.99,0.42,0.99,0.88v0.09c0,0.05,0.04,0.1,0.11,0.1l0.58-0.02c0.07,0,0.11-0.04,0.11-0.11v-0.11&#10;&#9;&#9;c0-0.81-0.71-1.49-1.8-1.49c-1.09,0-1.78,0.69-1.78,1.65v2.33C182,49.87,182.7,50.53,183.78,50.53L183.78,50.53z M189.28,44.92&#10;&#9;&#9;c-0.46,0-0.89,0.16-1.19,0.55c-0.02,0.03-0.06,0.02-0.06-0.01v-2.44c0-0.06-0.05-0.11-0.11-0.11h-0.58c-0.07,0-0.11,0.04-0.11,0.11&#10;&#9;&#9;v7.32c0,0.06,0.05,0.11,0.11,0.11h0.58c0.07,0,0.11-0.04,0.11-0.11v-3.58c0-0.72,0.38-1.16,0.98-1.16c0.58,0,0.91,0.41,0.91,1.11&#10;&#9;&#9;v3.64c0,0.06,0.05,0.11,0.11,0.11h0.58c0.07,0,0.11-0.04,0.11-0.11v-3.7C190.74,45.56,190.22,44.92,189.28,44.92L189.28,44.92z&#10;&#9;&#9; M195.19,45.11v3.58c0,0.72-0.37,1.16-0.97,1.16c-0.58,0-0.91-0.36-0.91-1.09v-3.66c0-0.06-0.05-0.11-0.11-0.11h-0.58&#10;&#9;&#9;c-0.07,0-0.11,0.04-0.11,0.11v3.83c0,1.1,0.63,1.58,1.49,1.58c0.49,0,0.89-0.16,1.14-0.56c0.02-0.03,0.06-0.03,0.06,0.01v0.36&#10;&#9;&#9;c0,0.06,0.05,0.11,0.11,0.11h0.58c0.07,0,0.11-0.04,0.11-0.11v-5.23c0-0.06-0.05-0.11-0.11-0.11h-0.58&#10;&#9;&#9;C195.24,45,195.19,45.04,195.19,45.11L195.19,45.11z M199.89,44.92c-0.46,0-0.89,0.16-1.19,0.55c-0.02,0.03-0.06,0.02-0.06-0.01&#10;&#9;&#9;v-0.35c0-0.06-0.05-0.11-0.11-0.11h-0.58c-0.07,0-0.11,0.04-0.11,0.11v5.23c0,0.06,0.04,0.11,0.11,0.11h0.58&#10;&#9;&#9;c0.07,0,0.11-0.04,0.11-0.11v-3.58c0-0.72,0.38-1.16,0.98-1.16c0.58,0,0.91,0.41,0.91,1.11v3.64c0,0.06,0.05,0.11,0.11,0.11h0.58&#10;&#9;&#9;c0.07,0,0.11-0.04,0.11-0.11v-3.7C201.35,45.56,200.83,44.92,199.89,44.92L199.89,44.92z M205.81,45.11v0.33&#10;&#9;&#9;c0,0.04-0.02,0.05-0.06,0.01c-0.26-0.37-0.7-0.54-1.14-0.54c-0.97,0-1.55,0.66-1.55,1.65v2.27c0,0.97,0.57,1.65,1.55,1.65&#10;&#9;&#9;c0.43,0,0.87-0.17,1.14-0.55c0.03-0.03,0.06-0.01,0.06,0.02v0.32c0,1.08-0.38,1.7-1.64,1.67c-0.07,0-0.11,0.04-0.11,0.11v0.46&#10;&#9;&#9;c0,0.06,0.03,0.11,0.11,0.12c1.86,0.08,2.45-0.86,2.45-2.29v-5.23c0-0.06-0.05-0.11-0.11-0.11h-0.58&#10;&#9;&#9;C205.85,45,205.81,45.04,205.81,45.11L205.81,45.11z M204.85,49.81c-0.57,0-0.98-0.42-0.98-1.02v-2.17c0-0.61,0.41-1.03,0.98-1.03&#10;&#9;&#9;s0.96,0.42,0.96,1.03v2.17C205.81,49.39,205.42,49.81,204.85,49.81L204.85,49.81z M217.57,43.47v-0.45c0-0.06-0.05-0.11-0.11-0.11&#10;&#9;&#9;h-3.39c-0.07,0-0.11,0.04-0.11,0.11v7.32c0,0.06,0.05,0.11,0.11,0.11h3.39c0.07,0,0.11-0.04,0.11-0.11v-0.45&#10;&#9;&#9;c0-0.06-0.05-0.11-0.11-0.11h-2.65c-0.02,0-0.04-0.02-0.04-0.04v-2.68c0-0.02,0.02-0.04,0.04-0.04h1.67c0.07,0,0.11-0.04,0.11-0.11&#10;&#9;&#9;v-0.46c0-0.06-0.05-0.11-0.11-0.11h-1.67c-0.02,0-0.04-0.02-0.04-0.04v-2.67c0-0.02,0.02-0.04,0.04-0.04h2.65&#10;&#9;&#9;C217.52,43.58,217.57,43.53,217.57,43.47L217.57,43.47z M219.97,50.44h0.68c0.07,0,0.11-0.03,0.13-0.1l1.4-5.22&#10;&#9;&#9;c0.02-0.06-0.01-0.12-0.09-0.12L221.43,45c-0.07,0-0.11,0.03-0.12,0.1l-0.97,4.16c-0.01,0.04-0.03,0.04-0.05,0l-0.98-4.16&#10;&#9;&#9;c-0.01-0.06-0.06-0.1-0.13-0.1h-0.66c-0.08,0-0.11,0.04-0.09,0.12l1.41,5.23C219.86,50.41,219.91,50.44,219.97,50.44L219.97,50.44z&#10;&#9;&#9; M225.36,44.91c-0.95,0-1.68,0.56-1.76,1.42c-0.01,0.06,0.03,0.11,0.1,0.11l0.63,0.01c0.07,0,0.11-0.03,0.12-0.11&#10;&#9;&#9;c0.05-0.45,0.42-0.76,0.88-0.76c0.59,0,0.96,0.47,0.96,1.18v0.42c0,0.02-0.02,0.04-0.05,0.04h-0.79c-1.13,0-2.03,0.47-2.03,1.76&#10;&#9;&#9;c0,1.28,0.9,1.54,1.55,1.54c0.51,0,0.96-0.15,1.26-0.52c0.03-0.03,0.06-0.02,0.06,0.01v0.31c0,0.06,0.05,0.11,0.11,0.11h0.58&#10;&#9;&#9;c0.07,0,0.11-0.04,0.11-0.11v-3.63C227.11,45.62,226.42,44.91,225.36,44.91L225.36,44.91z M225.16,49.86&#10;&#9;&#9;c-0.5,0-0.89-0.28-0.89-0.94c0-0.74,0.49-1.09,1.19-1.09h0.8c0.02,0,0.05,0.02,0.05,0.04v0.9&#10;&#9;&#9;C226.3,49.51,225.73,49.86,225.16,49.86L225.16,49.86z M228.96,50.44h0.58c0.07,0,0.11-0.04,0.11-0.11v-7.32&#10;&#9;&#9;c0-0.06-0.05-0.11-0.11-0.11h-0.58c-0.07,0-0.11,0.04-0.11,0.11v7.32C228.84,50.4,228.89,50.44,228.96,50.44L228.96,50.44z&#10;&#9;&#9; M234.1,45.11v3.58c0,0.72-0.36,1.16-0.97,1.16c-0.58,0-0.91-0.36-0.91-1.09v-3.66c0-0.06-0.05-0.11-0.11-0.11h-0.58&#10;&#9;&#9;c-0.07,0-0.11,0.04-0.11,0.11v3.83c0,1.1,0.63,1.58,1.49,1.58c0.49,0,0.89-0.16,1.14-0.56c0.02-0.03,0.06-0.03,0.06,0.01v0.36&#10;&#9;&#9;c0,0.06,0.05,0.11,0.11,0.11h0.58c0.07,0,0.11-0.04,0.11-0.11v-5.23c0-0.06-0.05-0.11-0.11-0.11h-0.58&#10;&#9;&#9;C234.15,45,234.1,45.04,234.1,45.11L234.1,45.11z M238.5,44.91c-0.95,0-1.68,0.56-1.76,1.42c-0.01,0.06,0.03,0.11,0.1,0.11&#10;&#9;&#9;l0.63,0.01c0.07,0,0.11-0.03,0.13-0.11c0.04-0.45,0.42-0.76,0.88-0.76c0.59,0,0.96,0.47,0.96,1.18v0.42c0,0.02-0.02,0.04-0.04,0.04&#10;&#9;&#9;h-0.79c-1.13,0-2.03,0.47-2.03,1.76c0,1.28,0.9,1.54,1.55,1.54c0.51,0,0.96-0.15,1.26-0.52c0.03-0.03,0.06-0.02,0.06,0.01v0.31&#10;&#9;&#9;c0,0.06,0.05,0.11,0.11,0.11h0.58c0.07,0,0.11-0.04,0.11-0.11v-3.63C240.24,45.62,239.56,44.91,238.5,44.91L238.5,44.91z&#10;&#9;&#9; M238.29,49.86c-0.5,0-0.89-0.28-0.89-0.94c0-0.74,0.49-1.09,1.19-1.09h0.8c0.02,0,0.04,0.02,0.04,0.04v0.9&#10;&#9;&#9;C239.43,49.51,238.86,49.86,238.29,49.86L238.29,49.86z M244.06,45.46v-0.35c0-0.06-0.05-0.11-0.11-0.11h-0.87&#10;&#9;&#9;c-0.02,0-0.05-0.02-0.05-0.04v-1.21c0-0.06-0.04-0.11-0.11-0.11h-0.57c-0.07,0-0.11,0.04-0.11,0.11v1.21&#10;&#9;&#9;c0,0.02-0.02,0.04-0.04,0.04h-0.45c-0.07,0-0.11,0.04-0.11,0.11v0.35c0,0.06,0.05,0.11,0.11,0.11h0.45c0.02,0,0.04,0.02,0.04,0.04&#10;&#9;&#9;v3.52c0,1.09,0.56,1.31,1.37,1.31h0.29c0.07,0,0.11-0.04,0.11-0.11v-0.46c0-0.06-0.05-0.11-0.11-0.11h-0.11&#10;&#9;&#9;c-0.48,0.01-0.74-0.17-0.74-0.86v-3.29c0-0.02,0.02-0.04,0.05-0.04h0.87C244.02,45.57,244.06,45.53,244.06,45.46L244.06,45.46z&#10;&#9;&#9; M246.09,44.03c0.32,0,0.55-0.24,0.55-0.57c0-0.31-0.23-0.55-0.55-0.55c-0.33,0-0.57,0.24-0.57,0.55&#10;&#9;&#9;C245.52,43.79,245.76,44.03,246.09,44.03L246.09,44.03z M245.79,50.44h0.58c0.07,0,0.11-0.04,0.11-0.11v-5.23&#10;&#9;&#9;c0-0.06-0.05-0.11-0.11-0.11h-0.58c-0.07,0-0.11,0.04-0.11,0.11v5.23C245.68,50.4,245.72,50.44,245.79,50.44L245.79,50.44z&#10;&#9;&#9; M250.01,50.53c1.1,0,1.8-0.66,1.8-1.65v-2.33c0-0.97-0.71-1.65-1.8-1.65c-1.1,0-1.79,0.68-1.79,1.65v2.33&#10;&#9;&#9;C248.22,49.87,248.92,50.53,250.01,50.53L250.01,50.53z M250.01,49.86c-0.58,0-0.98-0.42-0.98-1.02v-2.23&#10;&#9;&#9;c0-0.61,0.4-1.03,0.98-1.03c0.58,0,0.99,0.42,0.99,1.03v2.23C251.01,49.44,250.6,49.86,250.01,49.86L250.01,49.86z M255.61,44.92&#10;&#9;&#9;c-0.46,0-0.89,0.16-1.19,0.55c-0.02,0.03-0.06,0.02-0.06-0.01v-0.35c0-0.06-0.04-0.11-0.11-0.11h-0.58c-0.07,0-0.11,0.04-0.11,0.11&#10;&#9;&#9;v5.23c0,0.06,0.05,0.11,0.11,0.11h0.58c0.07,0,0.11-0.04,0.11-0.11v-3.58c0-0.72,0.38-1.16,0.98-1.16c0.58,0,0.91,0.41,0.91,1.11&#10;&#9;&#9;v3.64c0,0.06,0.05,0.11,0.11,0.11h0.58c0.07,0,0.11-0.04,0.11-0.11v-3.7C257.07,45.56,256.55,44.92,255.61,44.92L255.61,44.92z&#10;&#9;&#9; M268.35,48.4c0-0.9-0.39-1.5-1-1.83c-0.02-0.01-0.02-0.03,0.01-0.04c0.63-0.29,0.95-0.84,0.95-1.65c0-1.28-0.81-1.97-2.1-1.97&#10;&#9;&#9;h-1.64c-0.07,0-0.11,0.04-0.11,0.11v7.32c0,0.06,0.05,0.11,0.11,0.11h1.74C267.54,50.44,268.36,49.71,268.35,48.4L268.35,48.4z&#10;&#9;&#9; M265.3,43.58h0.9c0.82,0,1.3,0.51,1.3,1.37c0,0.83-0.48,1.31-1.3,1.31h-0.9c-0.02,0-0.04-0.02-0.04-0.04v-2.59&#10;&#9;&#9;C265.26,43.6,265.28,43.58,265.3,43.58L265.3,43.58z M266.25,49.77h-0.95c-0.02,0-0.04-0.02-0.04-0.04v-2.84&#10;&#9;&#9;c0-0.02,0.02-0.04,0.04-0.04h0.95c0.81,0,1.29,0.55,1.29,1.47S267.06,49.77,266.25,49.77L266.25,49.77z M273.52,47.9v-1.34&#10;&#9;&#9;c0-0.97-0.68-1.65-1.79-1.65c-1.08,0-1.78,0.68-1.78,1.65v2.32c0,0.99,0.7,1.65,1.78,1.65c1.01,0,1.63-0.54,1.76-1.38&#10;&#9;&#9;c0.01-0.06-0.03-0.12-0.1-0.12l-0.57-0.02c-0.07,0-0.1,0.03-0.13,0.1c-0.1,0.44-0.46,0.75-0.96,0.75c-0.57,0-0.97-0.42-0.97-1.02&#10;&#9;&#9;v-0.79c0-0.02,0.02-0.04,0.05-0.04h2.6C273.47,48.01,273.52,47.97,273.52,47.9L273.52,47.9z M271.73,45.58&#10;&#9;&#9;c0.59,0,0.99,0.42,0.99,1.03v0.72c0,0.02-0.02,0.04-0.05,0.04h-1.87c-0.02,0-0.05-0.02-0.05-0.04v-0.72&#10;&#9;&#9;C270.76,46,271.16,45.58,271.73,45.58L271.73,45.58z M277.15,44.95c-0.55,0-0.89,0.33-1.08,0.82c-0.02,0.03-0.06,0.03-0.06-0.01&#10;&#9;&#9;v-0.65c0-0.06-0.05-0.11-0.11-0.11h-0.58c-0.07,0-0.11,0.04-0.11,0.11v5.23c0,0.06,0.05,0.11,0.11,0.11h0.58&#10;&#9;&#9;c0.07,0,0.11-0.04,0.11-0.11v-3.23c0-0.73,0.39-1.3,0.94-1.33c0.18-0.03,0.35-0.01,0.48,0.04c0.08,0.02,0.14,0.01,0.15-0.06&#10;&#9;&#9;l0.13-0.55c0.01-0.05,0-0.11-0.06-0.14C277.53,45,277.38,44.95,277.15,44.95L277.15,44.95z M280.82,44.91&#10;&#9;&#9;c-0.95,0-1.68,0.56-1.76,1.42c-0.01,0.06,0.03,0.11,0.1,0.11l0.63,0.01c0.07,0,0.11-0.03,0.12-0.11c0.05-0.45,0.42-0.76,0.88-0.76&#10;&#9;&#9;c0.59,0,0.96,0.47,0.96,1.18v0.42c0,0.02-0.02,0.04-0.05,0.04h-0.79c-1.13,0-2.03,0.47-2.03,1.76c0,1.28,0.9,1.54,1.55,1.54&#10;&#9;&#9;c0.51,0,0.96-0.15,1.26-0.52c0.03-0.03,0.06-0.02,0.06,0.01v0.31c0,0.06,0.05,0.11,0.11,0.11h0.58c0.07,0,0.11-0.04,0.11-0.11&#10;&#9;&#9;v-3.63C282.56,45.62,281.88,44.91,280.82,44.91L280.82,44.91z M280.61,49.86c-0.5,0-0.89-0.28-0.89-0.94&#10;&#9;&#9;c0-0.74,0.49-1.09,1.19-1.09h0.8c0.02,0,0.05,0.02,0.05,0.04v0.9C281.76,49.51,281.18,49.86,280.61,49.86L280.61,49.86z&#10;&#9;&#9; M286.39,45.46v-0.35c0-0.06-0.05-0.11-0.11-0.11h-0.87c-0.02,0-0.05-0.02-0.05-0.04v-1.21c0-0.06-0.05-0.11-0.11-0.11h-0.57&#10;&#9;&#9;c-0.07,0-0.11,0.04-0.11,0.11v1.21c0,0.02-0.02,0.04-0.05,0.04h-0.44c-0.07,0-0.11,0.04-0.11,0.11v0.35c0,0.06,0.05,0.11,0.11,0.11&#10;&#9;&#9;h0.44c0.02,0,0.05,0.02,0.05,0.04v3.52c0,1.09,0.56,1.31,1.37,1.31h0.29c0.07,0,0.11-0.04,0.11-0.11v-0.46&#10;&#9;&#9;c0-0.06-0.05-0.11-0.11-0.11h-0.11c-0.48,0.01-0.74-0.17-0.74-0.86v-3.29c0-0.02,0.02-0.04,0.05-0.04h0.87&#10;&#9;&#9;C286.34,45.57,286.39,45.53,286.39,45.46L286.39,45.46z M290.63,45.11v3.58c0,0.72-0.36,1.16-0.97,1.16&#10;&#9;&#9;c-0.58,0-0.91-0.36-0.91-1.09v-3.66c0-0.06-0.04-0.11-0.11-0.11h-0.58c-0.07,0-0.11,0.04-0.11,0.11v3.83c0,1.1,0.63,1.58,1.49,1.58&#10;&#9;&#9;c0.49,0,0.89-0.16,1.14-0.56c0.02-0.03,0.06-0.03,0.06,0.01v0.36c0,0.06,0.05,0.11,0.11,0.11h0.58c0.07,0,0.11-0.04,0.11-0.11&#10;&#9;&#9;v-5.23c0-0.06-0.05-0.11-0.11-0.11h-0.58C290.68,45,290.63,45.04,290.63,45.11L290.63,45.11z M295.34,44.92&#10;&#9;&#9;c-0.46,0-0.89,0.16-1.19,0.55c-0.02,0.03-0.06,0.02-0.06-0.01v-0.35c0-0.06-0.05-0.11-0.11-0.11h-0.58c-0.07,0-0.11,0.04-0.11,0.11&#10;&#9;&#9;v5.23c0,0.06,0.05,0.11,0.11,0.11h0.58c0.07,0,0.11-0.04,0.11-0.11v-3.58c0-0.72,0.38-1.16,0.98-1.16c0.58,0,0.91,0.41,0.91,1.11&#10;&#9;&#9;v3.64c0,0.06,0.04,0.11,0.11,0.11h0.58c0.07,0,0.11-0.04,0.11-0.11v-3.7C296.79,45.56,296.27,44.92,295.34,44.92L295.34,44.92z&#10;&#9;&#9; M301.25,45.11v0.33c0,0.04-0.02,0.05-0.06,0.01c-0.26-0.37-0.7-0.54-1.14-0.54c-0.97,0-1.55,0.66-1.55,1.65v2.27&#10;&#9;&#9;c0,0.97,0.57,1.65,1.55,1.65c0.43,0,0.87-0.17,1.14-0.55c0.03-0.03,0.06-0.01,0.06,0.02v0.32c0,1.08-0.38,1.7-1.64,1.67&#10;&#9;&#9;c-0.07,0-0.11,0.04-0.11,0.11v0.46c0,0.06,0.03,0.11,0.11,0.12c1.86,0.08,2.45-0.86,2.45-2.29v-5.23c0-0.06-0.04-0.11-0.11-0.11&#10;&#9;&#9;h-0.58C301.29,45,301.25,45.04,301.25,45.11L301.25,45.11z M300.29,49.81c-0.57,0-0.98-0.42-0.98-1.02v-2.17&#10;&#9;&#9;c0-0.61,0.41-1.03,0.98-1.03s0.96,0.42,0.96,1.03v2.17C301.25,49.39,300.86,49.81,300.29,49.81L300.29,49.81z"/>
    <path d="M168.71,31.45c0-1.43-0.6-2.38-1.6-2.87c-0.04-0.02-0.02-0.05,0.03-0.07c0.99-0.44,1.51-1.31,1.51-2.6&#10;&#9;&#9;c0-1.96-1.18-3.04-3.12-3.04h-2.41c-0.11,0-0.18,0.07-0.18,0.17v11.41c0,0.1,0.07,0.17,0.18,0.17h2.52&#10;&#9;&#9;C167.52,34.62,168.73,33.48,168.71,31.45L168.71,31.45z M163.96,23.66h1.6c1.37,0,2.18,0.86,2.18,2.3c0,1.41-0.81,2.23-2.18,2.23&#10;&#9;&#9;h-1.6c-0.03,0-0.07-0.03-0.07-0.07v-4.39C163.89,23.7,163.92,23.66,163.96,23.66L163.96,23.66z M165.6,33.81h-1.64&#10;&#9;&#9;c-0.03,0-0.07-0.03-0.07-0.07v-4.78c0-0.03,0.04-0.07,0.07-0.07h1.64c1.37,0,2.18,0.92,2.18,2.48&#10;&#9;&#9;C167.78,32.92,166.97,33.81,165.6,33.81L165.6,33.81z M172.5,24.54c0.37,0,0.63-0.29,0.63-0.67c0-0.39-0.26-0.67-0.63-0.67&#10;&#9;&#9;c-0.39,0-0.67,0.29-0.67,0.67C171.83,24.25,172.11,24.54,172.5,24.54L172.5,24.54z M174.64,24.54c0.37,0,0.63-0.29,0.63-0.67&#10;&#9;&#9;c0-0.39-0.26-0.67-0.63-0.67c-0.39,0-0.67,0.29-0.67,0.67C173.97,24.25,174.26,24.54,174.64,24.54L174.64,24.54z M175.17,26.33v5.6&#10;&#9;&#9;c0,1.26-0.63,2.01-1.66,2.01c-1,0-1.58-0.62-1.58-1.86v-5.75c0-0.1-0.07-0.17-0.18-0.17h-0.58c-0.11,0-0.18,0.07-0.18,0.17v5.95&#10;&#9;&#9;c0,1.68,0.93,2.45,2.29,2.45c0.77,0,1.41-0.29,1.8-0.92c0.04-0.05,0.09-0.03,0.09,0.03v0.6c0,0.1,0.07,0.17,0.18,0.17h0.58&#10;&#9;&#9;c0.11,0,0.18-0.07,0.18-0.17v-8.12c0-0.1-0.07-0.17-0.18-0.17h-0.58C175.24,26.16,175.17,26.23,175.17,26.33L175.17,26.33z&#10;&#9;&#9; M181.47,26.1c-0.83,0-1.39,0.5-1.71,1.27c-0.03,0.07-0.09,0.07-0.09,0v-1.04c0-0.1-0.07-0.17-0.18-0.17h-0.58&#10;&#9;&#9;c-0.11,0-0.18,0.07-0.18,0.17v8.12c0,0.1,0.07,0.17,0.18,0.17h0.58c0.11,0,0.18-0.07,0.18-0.17v-5.12c0-1.27,0.65-2.25,1.59-2.28&#10;&#9;&#9;c0.28-0.02,0.51,0.02,0.69,0.08c0.12,0.05,0.19,0.03,0.23-0.08l0.14-0.57c0.02-0.08,0-0.17-0.09-0.22&#10;&#9;&#9;C182.03,26.16,181.82,26.1,181.47,26.1L181.47,26.1z M186.7,34.75c1.6,0,2.64-1.02,2.64-2.5v-3.71c0-1.48-1.04-2.52-2.64-2.52&#10;&#9;&#9;c-1.57,0-2.61,1.04-2.61,2.52v3.71C184.09,33.73,185.13,34.75,186.7,34.75L186.7,34.75z M186.7,33.96c-0.99,0-1.67-0.72-1.67-1.76&#10;&#9;&#9;V28.6c0-1.06,0.69-1.78,1.67-1.78c1,0,1.71,0.72,1.71,1.78v3.61C188.4,33.24,187.7,33.96,186.7,33.96L186.7,33.96z M198.46,23.51&#10;&#9;&#9;h0.23c0.11,0,0.18-0.05,0.18-0.17l0.02-0.44c0-0.1-0.07-0.17-0.18-0.17h-0.26c-1.66,0-2.24,0.91-2.24,2.73v0.62&#10;&#9;&#9;c0,0.03-0.04,0.07-0.07,0.07h-0.74c-0.1,0-0.18,0.07-0.18,0.17v0.37c0,0.1,0.07,0.17,0.18,0.17h0.74c0.03,0,0.07,0.03,0.07,0.07&#10;&#9;&#9;v7.51c0,0.1,0.07,0.17,0.18,0.17h0.58c0.11,0,0.18-0.07,0.18-0.17v-7.51c0-0.03,0.04-0.07,0.07-0.07h1.44&#10;&#9;&#9;c0.11,0,0.18-0.07,0.18-0.17v-0.37c0-0.1-0.07-0.17-0.18-0.17h-1.44c-0.04,0-0.07-0.03-0.07-0.07v-0.6&#10;&#9;&#9;C197.14,24.22,197.4,23.51,198.46,23.51L198.46,23.51z M202.54,24.54c0.37,0,0.63-0.29,0.63-0.67c0-0.39-0.26-0.67-0.63-0.67&#10;&#9;&#9;c-0.39,0-0.67,0.29-0.67,0.67C201.87,24.25,202.15,24.54,202.54,24.54L202.54,24.54z M204.69,24.54c0.37,0,0.63-0.29,0.63-0.67&#10;&#9;&#9;c0-0.39-0.26-0.67-0.63-0.67c-0.39,0-0.67,0.29-0.67,0.67C204.02,24.25,204.3,24.54,204.69,24.54L204.69,24.54z M205.22,26.33v5.6&#10;&#9;&#9;c0,1.26-0.63,2.01-1.65,2.01c-1,0-1.59-0.62-1.59-1.86v-5.75c0-0.1-0.07-0.17-0.18-0.17h-0.58c-0.11,0-0.18,0.07-0.18,0.17v5.95&#10;&#9;&#9;c0,1.68,0.93,2.45,2.29,2.45c0.77,0,1.41-0.29,1.8-0.92c0.04-0.05,0.09-0.03,0.09,0.03v0.6c0,0.1,0.07,0.17,0.18,0.17h0.58&#10;&#9;&#9;c0.11,0,0.18-0.07,0.18-0.17v-8.12c0-0.1-0.07-0.17-0.18-0.17h-0.58C205.29,26.16,205.22,26.23,205.22,26.33L205.22,26.33z&#10;&#9;&#9; M211.52,26.1c-0.83,0-1.39,0.5-1.71,1.27c-0.04,0.07-0.09,0.07-0.09,0v-1.04c0-0.1-0.07-0.17-0.18-0.17h-0.58&#10;&#9;&#9;c-0.11,0-0.18,0.07-0.18,0.17v8.12c0,0.1,0.07,0.17,0.18,0.17h0.58c0.11,0,0.18-0.07,0.18-0.17v-5.12c0-1.27,0.65-2.25,1.59-2.28&#10;&#9;&#9;c0.28-0.02,0.51,0.02,0.69,0.08c0.12,0.05,0.19,0.03,0.23-0.08l0.14-0.57c0.02-0.08,0-0.17-0.09-0.22&#10;&#9;&#9;C212.08,26.16,211.87,26.1,211.52,26.1L211.52,26.1z M221.31,22.84h-2.75c-0.11,0-0.18,0.07-0.18,0.17v11.44&#10;&#9;&#9;c0,0.1,0.07,0.17,0.18,0.17h0.58c0.11,0,0.18-0.07,0.18-0.17v-5.22c0-0.03,0.04-0.07,0.07-0.07h1.96c1.62,0,2.71-1.24,2.71-3.14&#10;&#9;&#9;C224.06,24.13,222.95,22.84,221.31,22.84L221.31,22.84z M221.2,28.43h-1.81c-0.04,0-0.07-0.03-0.07-0.07v-4.65&#10;&#9;&#9;c0-0.03,0.04-0.07,0.07-0.07h1.81c1.15,0,1.92,0.94,1.92,2.4C223.12,27.49,222.35,28.43,221.2,28.43L221.2,28.43z M228.72,34.75&#10;&#9;&#9;c1.6,0,2.64-1.02,2.64-2.5v-3.71c0-1.48-1.04-2.52-2.64-2.52c-1.57,0-2.61,1.04-2.61,2.52v3.71&#10;&#9;&#9;C226.11,33.73,227.15,34.75,228.72,34.75L228.72,34.75z M228.72,33.96c-0.99,0-1.67-0.72-1.67-1.76V28.6&#10;&#9;&#9;c0-1.06,0.69-1.78,1.67-1.78c1,0,1.71,0.72,1.71,1.78v3.61C230.42,33.24,229.72,33.96,228.72,33.96L228.72,33.96z M233.96,34.62&#10;&#9;&#9;h0.58c0.11,0,0.18-0.07,0.18-0.17V23.04c0-0.1-0.07-0.17-0.18-0.17h-0.58c-0.11,0-0.18,0.07-0.18,0.17v11.41&#10;&#9;&#9;C233.78,34.55,233.85,34.62,233.96,34.62L233.96,34.62z M237.82,24.47c0.42,0,0.7-0.3,0.7-0.74c0-0.42-0.28-0.72-0.7-0.72&#10;&#9;&#9;c-0.41,0-0.72,0.3-0.72,0.72C237.1,24.17,237.41,24.47,237.82,24.47L237.82,24.47z M237.54,34.62h0.58c0.11,0,0.18-0.07,0.18-0.17&#10;&#9;&#9;v-8.12c0-0.1-0.07-0.17-0.18-0.17h-0.58c-0.11,0-0.18,0.07-0.18,0.17v8.12C237.36,34.55,237.43,34.62,237.54,34.62L237.54,34.62z&#10;&#9;&#9; M244.06,26.7v-0.37c0-0.1-0.07-0.17-0.18-0.17h-1.41c-0.04,0-0.07-0.03-0.07-0.07v-1.88c0-0.1-0.07-0.17-0.18-0.17h-0.56&#10;&#9;&#9;c-0.1,0-0.18,0.07-0.18,0.17v1.88c0,0.03-0.04,0.07-0.07,0.07h-0.72c-0.11,0-0.18,0.07-0.18,0.17v0.37c0,0.1,0.07,0.17,0.18,0.17&#10;&#9;&#9;h0.72c0.04,0,0.07,0.03,0.07,0.07v5.62c0,1.69,0.81,2.06,1.99,2.06h0.35c0.1,0,0.18-0.07,0.18-0.17V34c0-0.1-0.07-0.17-0.18-0.17&#10;&#9;&#9;h-0.18c-0.83,0-1.25-0.32-1.25-1.49v-5.4c0-0.03,0.04-0.07,0.07-0.07h1.41C243.98,26.87,244.06,26.8,244.06,26.7L244.06,26.7z&#10;&#9;&#9; M246.78,24.47c0.42,0,0.7-0.3,0.7-0.74c0-0.42-0.28-0.72-0.7-0.72c-0.41,0-0.72,0.3-0.72,0.72&#10;&#9;&#9;C246.06,24.17,246.37,24.47,246.78,24.47L246.78,24.47z M246.5,34.62h0.58c0.11,0,0.18-0.07,0.18-0.17v-8.12&#10;&#9;&#9;c0-0.1-0.07-0.17-0.18-0.17h-0.58c-0.11,0-0.18,0.07-0.18,0.17v8.12C246.32,34.55,246.39,34.62,246.5,34.62L246.5,34.62z&#10;&#9;&#9; M250.1,34.62h0.58c0.11,0,0.18-0.07,0.18-0.17v-2.94c0-0.03,0.02-0.07,0.04-0.08l1.48-1.95c0.04-0.03,0.09-0.05,0.11,0.02&#10;&#9;&#9;l1.67,4.98c0.04,0.08,0.12,0.13,0.21,0.13h0.62c0.12,0,0.18-0.07,0.14-0.18l-2.06-5.7c-0.02-0.03,0-0.07,0.02-0.08l1.71-2.28&#10;&#9;&#9;c0.09-0.1,0.04-0.2-0.1-0.2h-0.62c-0.09,0-0.16,0.02-0.21,0.1l-2.91,3.84c-0.04,0.05-0.09,0.03-0.09-0.02v-7.05&#10;&#9;&#9;c0-0.1-0.07-0.17-0.18-0.17h-0.58c-0.1,0-0.18,0.07-0.18,0.17v11.41C249.92,34.55,249.99,34.62,250.1,34.62L250.1,34.62z&#10;&#9;&#9; M259.76,26.03c-1.34,0-2.43,0.82-2.57,2.08c-0.02,0.1,0.05,0.17,0.16,0.17l0.63,0.03c0.1,0,0.18-0.05,0.18-0.17&#10;&#9;&#9;c0.09-0.79,0.78-1.33,1.58-1.33c1.04,0,1.64,0.82,1.64,2.05v0.77c0,0.03-0.04,0.07-0.07,0.07h-1.37c-1.69,0-2.98,0.75-2.98,2.7&#10;&#9;&#9;c0,1.93,1.29,2.35,2.29,2.35c0.85,0,1.58-0.29,2.04-0.94c0.03-0.05,0.09-0.03,0.09,0.03v0.6c0,0.1,0.07,0.17,0.18,0.17h0.58&#10;&#9;&#9;c0.11,0,0.18-0.07,0.18-0.17v-5.62C262.32,27.14,261.37,26.03,259.76,26.03L259.76,26.03z M259.45,33.96&#10;&#9;&#9;c-0.86,0-1.53-0.47-1.53-1.63c0-1.29,0.85-1.9,2.03-1.9h1.37c0.04,0,0.07,0.03,0.07,0.07v1.59&#10;&#9;&#9;C261.38,33.38,260.4,33.96,259.45,33.96L259.45,33.96z M267.73,26.05c-0.76,0-1.43,0.29-1.87,0.94c-0.04,0.07-0.09,0.07-0.09,0&#10;&#9;&#9;v-0.65c0-0.1-0.07-0.17-0.18-0.17h-0.58c-0.11,0-0.18,0.07-0.18,0.17v8.12c0,0.1,0.07,0.17,0.18,0.17h0.58&#10;&#9;&#9;c0.11,0,0.18-0.07,0.18-0.17v-5.6c0-1.26,0.63-2.01,1.67-2.01c1,0,1.59,0.7,1.59,1.91v5.7c0,0.1,0.07,0.17,0.18,0.17h0.58&#10;&#9;&#9;c0.11,0,0.18-0.07,0.18-0.17v-5.79C269.97,27.02,269.16,26.05,267.73,26.05L267.73,26.05z M275.05,26.03&#10;&#9;&#9;c-1.34,0-2.43,0.82-2.57,2.08c-0.02,0.1,0.05,0.17,0.16,0.17l0.63,0.03c0.11,0,0.18-0.05,0.18-0.17c0.09-0.79,0.78-1.33,1.58-1.33&#10;&#9;&#9;c1.04,0,1.64,0.82,1.64,2.05v0.77c0,0.03-0.04,0.07-0.07,0.07h-1.37c-1.69,0-2.98,0.75-2.98,2.7c0,1.93,1.29,2.35,2.29,2.35&#10;&#9;&#9;c0.85,0,1.58-0.29,2.04-0.94c0.04-0.05,0.09-0.03,0.09,0.03v0.6c0,0.1,0.07,0.17,0.18,0.17h0.58c0.11,0,0.18-0.07,0.18-0.17v-5.62&#10;&#9;&#9;C277.6,27.14,276.65,26.03,275.05,26.03L275.05,26.03z M274.73,33.96c-0.86,0-1.53-0.47-1.53-1.63c0-1.29,0.84-1.9,2.02-1.9h1.37&#10;&#9;&#9;c0.04,0,0.07,0.03,0.07,0.07v1.59C276.67,33.38,275.68,33.96,274.73,33.96L274.73,33.96z M280.25,34.62h0.58&#10;&#9;&#9;c0.1,0,0.18-0.07,0.18-0.17V23.04c0-0.1-0.07-0.17-0.18-0.17h-0.58c-0.1,0-0.18,0.07-0.18,0.17v11.41&#10;&#9;&#9;C280.07,34.55,280.14,34.62,280.25,34.62L280.25,34.62z M283.5,37.97h0.11c1.44,0,1.88-0.39,2.47-2.5l2.48-9.11&#10;&#9;&#9;c0.04-0.1-0.02-0.18-0.14-0.18l-0.63-0.02c-0.11,0-0.18,0.05-0.19,0.15l-1.73,6.98c-0.02,0.07-0.05,0.07-0.07,0l-1.74-6.98&#10;&#9;&#9;c-0.02-0.08-0.09-0.15-0.19-0.15h-0.62c-0.12,0-0.19,0.07-0.16,0.18l2.25,8.22c0,0.03,0.02,0.07,0,0.1&#10;&#9;&#9;c-0.46,2.08-0.72,2.52-1.74,2.53h-0.09c-0.05,0-0.11,0.07-0.11,0.17v0.44C283.4,37.91,283.43,37.97,283.5,37.97L283.5,37.97z&#10;&#9;&#9; M292.85,34.7c1.51,0,2.5-0.89,2.5-2.23c0-1.54-1.27-2.05-2.33-2.47c-0.92-0.39-1.76-0.72-1.76-1.69c0-0.86,0.6-1.48,1.55-1.48&#10;&#9;&#9;c0.95,0,1.58,0.65,1.58,1.46v0.12c0,0.07,0.07,0.13,0.18,0.13h0.53c0.11,0,0.18-0.07,0.18-0.17v-0.05c0-1.31-0.95-2.23-2.47-2.23&#10;&#9;&#9;c-1.46,0-2.45,0.86-2.45,2.23c0,1.53,1.16,2.01,2.18,2.42c0.95,0.37,1.87,0.72,1.87,1.76c0,0.87-0.62,1.48-1.57,1.48&#10;&#9;&#9;c-0.99,0-1.64-0.62-1.64-1.41v-0.13c0-0.08-0.07-0.13-0.18-0.13h-0.55c-0.11,0-0.18,0.07-0.18,0.17v0.1&#10;&#9;&#9;C290.31,33.81,291.3,34.7,292.85,34.7L292.85,34.7z M302.72,30.54v-2c0-1.48-1.04-2.52-2.62-2.52c-1.57,0-2.61,1.04-2.61,2.52v3.71&#10;&#9;&#9;c0,1.48,1.04,2.5,2.61,2.5c1.39,0,2.33-0.77,2.55-1.98c0-0.02,0-0.05,0-0.07c0.02-0.08-0.07-0.13-0.16-0.13l-0.56-0.03&#10;&#9;&#9;c-0.11,0-0.16,0.05-0.19,0.15c-0.19,0.75-0.79,1.27-1.64,1.27c-0.99,0-1.67-0.72-1.67-1.76v-1.43c0-0.03,0.04-0.07,0.07-0.07h4.05&#10;&#9;&#9;C302.65,30.71,302.72,30.64,302.72,30.54L302.72,30.54z M300.09,26.82c1,0,1.69,0.72,1.69,1.78v1.27c0,0.03-0.03,0.07-0.07,0.07&#10;&#9;&#9;h-3.22c-0.04,0-0.07-0.03-0.07-0.07V28.6C298.42,27.54,299.11,26.82,300.09,26.82L300.09,26.82z"/>
    <path d="M11.21,73.65c0.94,0,1.58-0.56,1.58-1.43v-1.59c0-0.05-0.04-0.09-0.1-0.09h-1.36c-0.06,0-0.1,0.04-0.1,0.09v0.24&#10;&#9;&#9;c0,0.05,0.04,0.09,0.1,0.09h0.91c0.02,0,0.04,0.02,0.04,0.04v1.24c0,0.61-0.43,1-1.07,1s-1.07-0.4-1.07-1v-3.47&#10;&#9;&#9;c0-0.61,0.43-1,1.07-1s1.07,0.4,1.07,1v0.4c0,0.05,0.04,0.09,0.1,0.09h0.32c0.06,0,0.1-0.04,0.1-0.09v-0.39&#10;&#9;&#9;c0-0.86-0.64-1.42-1.58-1.42c-0.94,0-1.57,0.56-1.57,1.42v3.45C9.65,73.09,10.27,73.65,11.21,73.65L11.21,73.65z M17.19,71.45V70.4&#10;&#9;&#9;c0-0.77-0.57-1.32-1.44-1.32c-0.86,0-1.43,0.54-1.43,1.32v1.94c0,0.77,0.57,1.31,1.43,1.31c0.77,0,1.28-0.4,1.4-1.04&#10;&#9;&#9;c0-0.01,0-0.03,0-0.04c0.01-0.04-0.04-0.07-0.09-0.07l-0.31-0.02c-0.06,0-0.09,0.03-0.11,0.08c-0.11,0.4-0.44,0.67-0.9,0.67&#10;&#9;&#9;c-0.54,0-0.92-0.38-0.92-0.92v-0.75c0-0.02,0.02-0.04,0.04-0.04h2.23C17.15,71.53,17.19,71.5,17.19,71.45L17.19,71.45z&#10;&#9;&#9; M15.75,69.49c0.55,0,0.93,0.38,0.93,0.93v0.67c0,0.02-0.02,0.04-0.04,0.04h-1.77c-0.02,0-0.04-0.02-0.04-0.04v-0.67&#10;&#9;&#9;C14.83,69.87,15.2,69.49,15.75,69.49L15.75,69.49z M20.21,69.11c-0.45,0-0.76,0.26-0.94,0.67c-0.02,0.04-0.05,0.04-0.05,0v-0.55&#10;&#9;&#9;c0-0.05-0.04-0.09-0.1-0.09h-0.32c-0.06,0-0.1,0.04-0.1,0.09v4.26c0,0.05,0.04,0.09,0.1,0.09h0.32c0.06,0,0.1-0.04,0.1-0.09v-2.68&#10;&#9;&#9;c0-0.67,0.36-1.18,0.87-1.2c0.15-0.01,0.28,0.01,0.38,0.04c0.07,0.03,0.11,0.02,0.13-0.04l0.08-0.3c0.01-0.04,0-0.09-0.05-0.11&#10;&#9;&#9;C20.52,69.15,20.41,69.11,20.21,69.11L20.21,69.11z M24.87,70.38c-0.02-0.76-0.52-1.3-1.31-1.3c-0.42,0-0.76,0.16-0.98,0.46&#10;&#9;&#9;c-0.02,0.04-0.05,0.03-0.05-0.01v-2.01c0-0.05-0.04-0.09-0.1-0.09h-0.32c-0.06,0-0.1,0.04-0.1,0.09v5.98c0,0.05,0.04,0.09,0.1,0.09&#10;&#9;&#9;h0.32c0.06,0,0.1-0.04,0.1-0.09v-0.29c0-0.04,0.03-0.04,0.05-0.01c0.21,0.3,0.56,0.46,0.98,0.46c0.78,0,1.29-0.55,1.31-1.31&#10;&#9;&#9;c0-0.33,0.01-0.67,0.01-0.99C24.88,71.02,24.87,70.71,24.87,70.38L24.87,70.38L24.87,70.38z M24.37,70.44v1.85&#10;&#9;&#9;c0,0.56-0.38,0.95-0.93,0.95c-0.53,0-0.9-0.39-0.9-0.95v-1.85c0-0.56,0.37-0.95,0.9-0.95C23.98,69.49,24.37,69.88,24.37,70.44&#10;&#9;&#9;L24.37,70.44L24.37,70.44z M29.25,71.45V70.4c0-0.77-0.57-1.32-1.44-1.32c-0.86,0-1.43,0.54-1.43,1.32v1.94&#10;&#9;&#9;c0,0.77,0.57,1.31,1.43,1.31c0.77,0,1.28-0.4,1.4-1.04c0-0.01,0-0.03,0-0.04c0.01-0.04-0.04-0.07-0.09-0.07l-0.31-0.02&#10;&#9;&#9;c-0.06,0-0.09,0.03-0.11,0.08c-0.11,0.4-0.44,0.67-0.9,0.67c-0.54,0-0.92-0.38-0.92-0.92v-0.75c0-0.02,0.02-0.04,0.04-0.04h2.23&#10;&#9;&#9;C29.21,71.53,29.25,71.5,29.25,71.45L29.25,71.45z M27.81,69.49c0.55,0,0.93,0.38,0.93,0.93v0.67c0,0.02-0.02,0.04-0.04,0.04h-1.77&#10;&#9;&#9;c-0.02,0-0.04-0.02-0.04-0.04v-0.67C26.89,69.87,27.27,69.49,27.81,69.49L27.81,69.49z M32.28,69.11c-0.46,0-0.76,0.26-0.94,0.67&#10;&#9;&#9;c-0.02,0.04-0.05,0.04-0.05,0v-0.55c0-0.05-0.04-0.09-0.1-0.09h-0.32c-0.06,0-0.1,0.04-0.1,0.09v4.26c0,0.05,0.04,0.09,0.1,0.09&#10;&#9;&#9;h0.32c0.06,0,0.1-0.04,0.1-0.09v-2.68c0-0.67,0.36-1.18,0.87-1.2c0.15-0.01,0.28,0.01,0.38,0.04c0.07,0.03,0.11,0.02,0.13-0.04&#10;&#9;&#9;l0.08-0.3c0.01-0.04,0-0.09-0.05-0.11C32.59,69.15,32.47,69.11,32.28,69.11L32.28,69.11z M35.68,69.09c-0.42,0-0.78,0.15-1.03,0.49&#10;&#9;&#9;c-0.02,0.04-0.05,0.04-0.05,0v-0.34c0-0.05-0.04-0.09-0.1-0.09h-0.32c-0.06,0-0.1,0.04-0.1,0.09v4.26c0,0.05,0.04,0.09,0.1,0.09&#10;&#9;&#9;h0.32c0.06,0,0.1-0.04,0.1-0.09v-2.94c0-0.66,0.35-1.06,0.92-1.06c0.55,0,0.87,0.37,0.87,1v2.99c0,0.05,0.04,0.09,0.1,0.09h0.32&#10;&#9;&#9;c0.06,0,0.1-0.04,0.1-0.09v-3.04C36.91,69.6,36.46,69.09,35.68,69.09L35.68,69.09z M40.79,69.24v0.31c0,0.04-0.03,0.04-0.05,0.01&#10;&#9;&#9;c-0.21-0.32-0.58-0.47-0.99-0.47c-0.8,0-1.31,0.54-1.31,1.32v1.91c0,0.77,0.49,1.32,1.31,1.32c0.41,0,0.77-0.16,0.99-0.47&#10;&#9;&#9;c0.02-0.04,0.05-0.03,0.05,0.01v0.33c0,0.92-0.36,1.45-1.39,1.44c-0.06,0-0.1,0.04-0.1,0.09v0.24c0,0.05,0.03,0.09,0.1,0.09&#10;&#9;&#9;c1.4,0.04,1.92-0.68,1.92-1.82v-4.29c0-0.05-0.04-0.09-0.1-0.09h-0.33C40.83,69.15,40.79,69.18,40.79,69.24L40.79,69.24z&#10;&#9;&#9; M39.89,73.22c-0.54,0-0.93-0.38-0.93-0.92v-1.87c0-0.55,0.39-0.93,0.93-0.93c0.53,0,0.9,0.38,0.9,0.93v1.87&#10;&#9;&#9;C40.79,72.84,40.42,73.22,39.89,73.22L39.89,73.22z M44.29,69.08c-0.74,0-1.34,0.43-1.41,1.09c-0.01,0.05,0.03,0.09,0.09,0.09&#10;&#9;&#9;l0.35,0.02c0.06,0,0.1-0.03,0.1-0.09c0.05-0.41,0.43-0.7,0.87-0.7c0.57,0,0.9,0.43,0.9,1.07v0.41c0,0.02-0.02,0.04-0.04,0.04h-0.76&#10;&#9;&#9;c-0.93,0-1.64,0.39-1.64,1.42c0,1.01,0.71,1.23,1.26,1.23c0.46,0,0.87-0.15,1.12-0.49c0.02-0.03,0.05-0.02,0.05,0.02v0.32&#10;&#9;&#9;c0,0.05,0.04,0.09,0.1,0.09h0.32c0.06,0,0.1-0.04,0.1-0.09v-2.95C45.7,69.66,45.17,69.08,44.29,69.08L44.29,69.08z M44.12,73.24&#10;&#9;&#9;c-0.47,0-0.84-0.25-0.84-0.85c0-0.68,0.46-0.99,1.11-0.99h0.76c0.02,0,0.04,0.02,0.04,0.04v0.84&#10;&#9;&#9;C45.18,72.93,44.64,73.24,44.12,73.24L44.12,73.24z M48.54,73.63c0.83,0,1.37-0.47,1.37-1.17c0-0.81-0.7-1.07-1.28-1.29&#10;&#9;&#9;c-0.5-0.2-0.97-0.38-0.97-0.89c0-0.45,0.33-0.77,0.85-0.77c0.52,0,0.87,0.34,0.87,0.77v0.06c0,0.04,0.04,0.07,0.1,0.07h0.29&#10;&#9;&#9;c0.06,0,0.1-0.04,0.1-0.09v-0.03c0-0.69-0.52-1.17-1.35-1.17c-0.8,0-1.34,0.45-1.34,1.17c0,0.8,0.64,1.06,1.2,1.27&#10;&#9;&#9;c0.52,0.19,1.03,0.38,1.03,0.92c0,0.46-0.34,0.77-0.86,0.77c-0.54,0-0.9-0.33-0.9-0.74v-0.07c0-0.04-0.04-0.07-0.1-0.07h-0.3&#10;&#9;&#9;c-0.06,0-0.1,0.04-0.1,0.09v0.05C47.15,73.16,47.69,73.63,48.54,73.63L48.54,73.63z M52.64,73.63c0.83,0,1.37-0.47,1.37-1.17&#10;&#9;&#9;c0-0.81-0.7-1.07-1.28-1.29c-0.5-0.2-0.97-0.38-0.97-0.89c0-0.45,0.33-0.77,0.85-0.77c0.52,0,0.87,0.34,0.87,0.77v0.06&#10;&#9;&#9;c0,0.04,0.04,0.07,0.1,0.07h0.29c0.06,0,0.1-0.04,0.1-0.09v-0.03c0-0.69-0.52-1.17-1.35-1.17c-0.8,0-1.34,0.45-1.34,1.17&#10;&#9;&#9;c0,0.8,0.64,1.06,1.2,1.27c0.52,0.19,1.03,0.38,1.03,0.92c0,0.46-0.34,0.77-0.86,0.77c-0.54,0-0.9-0.33-0.9-0.74v-0.07&#10;&#9;&#9;c0-0.04-0.04-0.07-0.1-0.07h-0.3c-0.06,0-0.1,0.04-0.1,0.09v0.05C51.25,73.16,51.79,73.63,52.64,73.63L52.64,73.63z M58.27,71.45&#10;&#9;&#9;V70.4c0-0.77-0.57-1.32-1.44-1.32c-0.86,0-1.43,0.54-1.43,1.32v1.94c0,0.77,0.57,1.31,1.43,1.31c0.77,0,1.28-0.4,1.4-1.04&#10;&#9;&#9;c0-0.01,0-0.03,0-0.04c0.01-0.04-0.04-0.07-0.09-0.07l-0.31-0.02c-0.06,0-0.09,0.03-0.11,0.08c-0.11,0.4-0.44,0.67-0.9,0.67&#10;&#9;&#9;c-0.54,0-0.92-0.38-0.92-0.92v-0.75c0-0.02,0.02-0.04,0.04-0.04h2.23C58.23,71.53,58.27,71.5,58.27,71.45L58.27,71.45z&#10;&#9;&#9; M56.83,69.49c0.55,0,0.93,0.38,0.93,0.93v0.67c0,0.02-0.02,0.04-0.04,0.04h-1.77c-0.02,0-0.04-0.02-0.04-0.04v-0.67&#10;&#9;&#9;C55.91,69.87,56.29,69.49,56.83,69.49L56.83,69.49z M61.77,73.58h2.89c0.06,0,0.1-0.04,0.1-0.09v-0.24c0-0.05-0.04-0.09-0.1-0.09&#10;&#9;&#9;h-2.31c-0.03,0-0.05-0.02-0.03-0.04c0.51-0.78,1.03-1.58,1.53-2.37c0.46-0.73,0.7-1.35,0.7-1.9c0-0.9-0.58-1.5-1.44-1.5&#10;&#9;&#9;c-0.84,0-1.42,0.6-1.44,1.48v0.33c0,0.05,0.04,0.09,0.1,0.09h0.34c0.06,0,0.1-0.04,0.1-0.09v-0.32c-0.01-0.65,0.35-1.08,0.9-1.08&#10;&#9;&#9;c0.56,0,0.93,0.43,0.93,1.09c0,0.45-0.22,1.02-0.64,1.7c-0.53,0.84-1.1,1.69-1.68,2.56c-0.02,0.04-0.03,0.08-0.03,0.11v0.26&#10;&#9;&#9;C61.67,73.55,61.71,73.58,61.77,73.58L61.77,73.58z M66.79,73.58h0.35c0.06,0,0.1-0.04,0.11-0.08l1.66-5.61&#10;&#9;&#9;c0.01-0.04,0.02-0.07,0.02-0.11v-0.27c0-0.05-0.04-0.09-0.1-0.09h-2.82c-0.06,0-0.1,0.04-0.1,0.09v0.73c0,0.05,0.04,0.09,0.1,0.09&#10;&#9;&#9;h0.24c0.06,0,0.1-0.04,0.1-0.09v-0.37c0-0.02,0.02-0.04,0.04-0.04h1.95c0.02,0,0.05,0.02,0.04,0.04l-1.68,5.61&#10;&#9;&#9;C66.68,73.55,66.72,73.58,66.79,73.58L66.79,73.58z M73.04,72.24c0.58,0,1.07-0.45,1.07-0.98c0-0.55-0.49-0.98-1.07-0.98&#10;&#9;&#9;c-0.6,0-1.09,0.43-1.09,0.98C71.95,71.79,72.44,72.24,73.04,72.24L73.04,72.24z M79.73,70.74c-0.15-0.53-0.57-0.96-1.17-1&#10;&#9;&#9;c-0.04,0-0.04-0.03-0.03-0.04l1.26-1.8c0.02-0.04,0.04-0.08,0.04-0.11v-0.26c0-0.05-0.04-0.09-0.1-0.09h-2.83&#10;&#9;&#9;c-0.06,0-0.1,0.04-0.1,0.09v0.24c0,0.05,0.04,0.09,0.1,0.09h2.28c0.03,0,0.05,0.03,0.03,0.04l-1.4,1.98&#10;&#9;&#9;c-0.03,0.04-0.03,0.08,0.01,0.12l0.15,0.14c0.04,0.04,0.08,0.04,0.14,0.02c0.07-0.02,0.14-0.04,0.21-0.04c0.47,0,0.8,0.26,0.94,0.7&#10;&#9;&#9;c0.08,0.24,0.12,0.58,0.12,0.91c0,0.27-0.02,0.55-0.08,0.77c-0.13,0.48-0.47,0.76-0.98,0.76c-0.51,0-0.86-0.3-0.98-0.82&#10;&#9;&#9;c-0.04-0.17-0.05-0.37-0.06-0.58c0-0.06-0.04-0.09-0.1-0.09h-0.32c-0.06,0-0.1,0.04-0.1,0.09c0,0.24,0.03,0.48,0.08,0.68&#10;&#9;&#9;c0.14,0.71,0.68,1.13,1.47,1.13c0.78,0,1.32-0.41,1.47-1.1c0.06-0.25,0.08-0.54,0.08-0.81C79.87,71.38,79.83,71.01,79.73,70.74&#10;&#9;&#9;L79.73,70.74z M82.93,73.67c0.95,0,1.6-0.61,1.6-1.53v-3.27c0-0.92-0.65-1.53-1.6-1.53s-1.57,0.61-1.57,1.53v3.27&#10;&#9;&#9;C81.36,73.06,81.98,73.67,82.93,73.67L82.93,73.67z M82.93,73.25c-0.63,0-1.06-0.42-1.06-1.07v-3.34c0-0.65,0.43-1.07,1.06-1.07&#10;&#9;&#9;c0.66,0,1.08,0.42,1.08,1.07v3.34C84.01,72.83,83.59,73.25,82.93,73.25L82.93,73.25z M86.76,67.46l-0.87,0.49&#10;&#9;&#9;c-0.04,0.03-0.07,0.06-0.07,0.11v0.2c0,0.06,0.05,0.1,0.12,0.06l0.83-0.38c0.03-0.02,0.05,0,0.05,0.03v5.53&#10;&#9;&#9;c0,0.05,0.04,0.09,0.1,0.09h0.32c0.06,0,0.1-0.04,0.1-0.09v-5.98c0-0.05-0.04-0.09-0.1-0.09h-0.35&#10;&#9;&#9;C86.84,67.43,86.8,67.44,86.76,67.46L86.76,67.46L86.76,67.46z M89.69,67.46l-0.87,0.49c-0.04,0.03-0.07,0.06-0.07,0.11v0.2&#10;&#9;&#9;c0,0.06,0.05,0.1,0.12,0.06l0.83-0.38c0.03-0.02,0.05,0,0.05,0.03v5.53c0,0.05,0.04,0.09,0.1,0.09h0.32c0.06,0,0.1-0.04,0.1-0.09&#10;&#9;&#9;v-5.98c0-0.05-0.04-0.09-0.1-0.09h-0.35C89.78,67.43,89.73,67.44,89.69,67.46L89.69,67.46L89.69,67.46z M97.3,71.92&#10;&#9;&#9;c0-0.75-0.33-1.25-0.88-1.5c-0.02-0.01-0.01-0.03,0.02-0.04c0.54-0.23,0.83-0.69,0.83-1.36c0-1.03-0.65-1.59-1.71-1.59h-1.33&#10;&#9;&#9;c-0.06,0-0.1,0.04-0.1,0.09v5.98c0,0.05,0.04,0.09,0.1,0.09h1.38C96.64,73.58,97.31,72.99,97.3,71.92L97.3,71.92z M94.69,67.84&#10;&#9;&#9;h0.88c0.76,0,1.2,0.45,1.2,1.21c0,0.74-0.45,1.17-1.2,1.17h-0.88c-0.02,0-0.04-0.02-0.04-0.04v-2.31&#10;&#9;&#9;C94.65,67.86,94.67,67.84,94.69,67.84L94.69,67.84z M95.59,73.16h-0.9c-0.02,0-0.04-0.02-0.04-0.04v-2.51&#10;&#9;&#9;c0-0.02,0.02-0.04,0.04-0.04h0.9c0.76,0,1.2,0.48,1.2,1.3C96.79,72.7,96.34,73.16,95.59,73.16L95.59,73.16z M101.61,71.45V70.4&#10;&#9;&#9;c0-0.77-0.57-1.32-1.44-1.32c-0.86,0-1.43,0.54-1.43,1.32v1.94c0,0.77,0.57,1.31,1.43,1.31c0.77,0,1.28-0.4,1.4-1.04&#10;&#9;&#9;c0-0.01,0-0.03,0-0.04c0.01-0.04-0.04-0.07-0.09-0.07l-0.31-0.02c-0.06,0-0.09,0.03-0.11,0.08c-0.11,0.4-0.44,0.67-0.9,0.67&#10;&#9;&#9;c-0.54,0-0.92-0.38-0.92-0.92v-0.75c0-0.02,0.02-0.04,0.04-0.04h2.23C101.57,71.53,101.61,71.5,101.61,71.45L101.61,71.45z&#10;&#9;&#9; M100.17,69.49c0.55,0,0.93,0.38,0.93,0.93v0.67c0,0.02-0.02,0.04-0.04,0.04h-1.77c-0.02,0-0.04-0.02-0.04-0.04v-0.67&#10;&#9;&#9;C99.25,69.87,99.63,69.49,100.17,69.49L100.17,69.49z M104.64,69.11c-0.45,0-0.76,0.26-0.94,0.67c-0.02,0.04-0.05,0.04-0.05,0&#10;&#9;&#9;v-0.55c0-0.05-0.04-0.09-0.1-0.09h-0.32c-0.06,0-0.1,0.04-0.1,0.09v4.26c0,0.05,0.04,0.09,0.1,0.09h0.32c0.06,0,0.1-0.04,0.1-0.09&#10;&#9;&#9;v-2.68c0-0.67,0.36-1.18,0.87-1.2c0.15-0.01,0.28,0.01,0.38,0.04c0.07,0.03,0.11,0.02,0.13-0.04l0.08-0.3&#10;&#9;&#9;c0.01-0.04,0-0.09-0.05-0.11C104.95,69.15,104.83,69.11,104.64,69.11L104.64,69.11z M108.04,69.09c-0.42,0-0.78,0.15-1.03,0.49&#10;&#9;&#9;c-0.02,0.04-0.05,0.04-0.05,0v-0.34c0-0.05-0.04-0.09-0.1-0.09h-0.32c-0.06,0-0.1,0.04-0.1,0.09v4.26c0,0.05,0.04,0.09,0.1,0.09&#10;&#9;&#9;h0.32c0.06,0,0.1-0.04,0.1-0.09v-2.94c0-0.66,0.35-1.06,0.92-1.06c0.55,0,0.87,0.37,0.87,1v2.99c0,0.05,0.04,0.09,0.1,0.09h0.32&#10;&#9;&#9;c0.06,0,0.1-0.04,0.1-0.09v-3.04C109.27,69.6,108.82,69.09,108.04,69.09L108.04,69.09z M113.79,72.24c0.58,0,1.07-0.45,1.07-0.98&#10;&#9;&#9;c0-0.55-0.49-0.98-1.07-0.98c-0.6,0-1.09,0.43-1.09,0.98C112.69,71.79,113.19,72.24,113.79,72.24L113.79,72.24z M119.62,73.67&#10;&#9;&#9;c0.93,0,1.57-0.61,1.57-1.53v-3.27c0-0.92-0.64-1.53-1.57-1.53s-1.54,0.61-1.54,1.53v3.27C118.08,73.06,118.69,73.67,119.62,73.67&#10;&#9;&#9;L119.62,73.67z M119.62,73.25c-0.62,0-1.04-0.42-1.04-1.07v-3.34c0-0.65,0.42-1.07,1.04-1.07c0.65,0,1.07,0.42,1.07,1.07v3.34&#10;&#9;&#9;C120.68,72.83,120.26,73.25,119.62,73.25L119.62,73.25z M125.47,70.74c-0.15-0.53-0.56-0.96-1.15-1c-0.04,0-0.04-0.03-0.03-0.04&#10;&#9;&#9;l1.24-1.8c0.02-0.04,0.04-0.08,0.04-0.11v-0.26c0-0.05-0.04-0.09-0.1-0.09h-2.78c-0.06,0-0.09,0.04-0.09,0.09v0.24&#10;&#9;&#9;c0,0.05,0.04,0.09,0.09,0.09h2.24c0.03,0,0.05,0.03,0.03,0.04l-1.38,1.98c-0.03,0.04-0.03,0.08,0.01,0.12l0.14,0.14&#10;&#9;&#9;c0.04,0.04,0.08,0.04,0.13,0.02c0.07-0.02,0.13-0.04,0.21-0.04c0.47,0,0.79,0.26,0.92,0.7c0.08,0.24,0.11,0.58,0.11,0.91&#10;&#9;&#9;c0,0.27-0.02,0.55-0.08,0.77c-0.12,0.48-0.47,0.76-0.96,0.76c-0.5,0-0.85-0.3-0.96-0.82c-0.04-0.17-0.05-0.37-0.06-0.58&#10;&#9;&#9;c0-0.06-0.04-0.09-0.1-0.09h-0.31c-0.06,0-0.09,0.04-0.09,0.09c0,0.24,0.03,0.48,0.08,0.68c0.13,0.71,0.66,1.13,1.44,1.13&#10;&#9;&#9;c0.77,0,1.29-0.41,1.44-1.1c0.06-0.25,0.08-0.54,0.08-0.81C125.6,71.38,125.56,71.01,125.47,70.74L125.47,70.74z M127.88,67.46&#10;&#9;&#9;l-0.85,0.49c-0.04,0.03-0.07,0.06-0.07,0.11v0.2c0,0.06,0.05,0.1,0.11,0.06l0.82-0.38c0.03-0.02,0.05,0,0.05,0.03v5.53&#10;&#9;&#9;c0,0.05,0.04,0.09,0.09,0.09h0.31c0.06,0,0.09-0.04,0.09-0.09v-5.98c0-0.05-0.04-0.09-0.09-0.09h-0.34&#10;&#9;&#9;C127.97,67.43,127.92,67.44,127.88,67.46L127.88,67.46L127.88,67.46z M134.78,70.74c-0.15-0.53-0.56-0.96-1.15-1&#10;&#9;&#9;c-0.04,0-0.04-0.03-0.03-0.04l1.24-1.8c0.02-0.04,0.04-0.08,0.04-0.11v-0.26c0-0.05-0.04-0.09-0.1-0.09h-2.77&#10;&#9;&#9;c-0.06,0-0.1,0.04-0.1,0.09v0.24c0,0.05,0.04,0.09,0.1,0.09h2.24c0.03,0,0.05,0.03,0.03,0.04l-1.38,1.98&#10;&#9;&#9;c-0.03,0.04-0.03,0.08,0.01,0.12l0.14,0.14c0.04,0.04,0.08,0.04,0.13,0.02c0.07-0.02,0.13-0.04,0.21-0.04&#10;&#9;&#9;c0.47,0,0.79,0.26,0.92,0.7c0.08,0.24,0.11,0.58,0.11,0.91c0,0.27-0.02,0.55-0.08,0.77c-0.12,0.48-0.47,0.76-0.96,0.76&#10;&#9;&#9;c-0.5,0-0.85-0.3-0.96-0.82c-0.04-0.17-0.05-0.37-0.06-0.58c0-0.06-0.04-0.09-0.09-0.09h-0.31c-0.06,0-0.09,0.04-0.09,0.09&#10;&#9;&#9;c0,0.24,0.03,0.48,0.08,0.68c0.13,0.71,0.67,1.13,1.45,1.13c0.77,0,1.29-0.41,1.44-1.1c0.06-0.25,0.08-0.54,0.08-0.81&#10;&#9;&#9;C134.92,71.38,134.88,71.01,134.78,70.74L134.78,70.74z M137.2,67.46l-0.86,0.49c-0.04,0.03-0.07,0.06-0.07,0.11v0.2&#10;&#9;&#9;c0,0.06,0.05,0.1,0.11,0.06l0.82-0.38c0.03-0.02,0.05,0,0.05,0.03v5.53c0,0.05,0.04,0.09,0.1,0.09h0.31c0.06,0,0.09-0.04,0.09-0.09&#10;&#9;&#9;v-5.98c0-0.05-0.04-0.09-0.09-0.09h-0.34C137.28,67.43,137.24,67.44,137.2,67.46L137.2,67.46L137.2,67.46z M139.35,73.58h2.84&#10;&#9;&#9;c0.06,0,0.09-0.04,0.09-0.09v-0.24c0-0.05-0.04-0.09-0.09-0.09h-2.27c-0.03,0-0.05-0.02-0.03-0.04c0.5-0.78,1.01-1.58,1.5-2.37&#10;&#9;&#9;c0.46-0.73,0.68-1.35,0.68-1.9c0-0.9-0.57-1.5-1.42-1.5c-0.83,0-1.4,0.6-1.42,1.48v0.33c0,0.05,0.04,0.09,0.09,0.09h0.33&#10;&#9;&#9;c0.06,0,0.1-0.04,0.1-0.09v-0.32c-0.01-0.65,0.34-1.08,0.88-1.08c0.55,0,0.91,0.43,0.91,1.09c0,0.45-0.22,1.02-0.63,1.7&#10;&#9;&#9;c-0.52,0.84-1.08,1.69-1.65,2.56c-0.02,0.04-0.03,0.08-0.03,0.11v0.26C139.26,73.55,139.3,73.58,139.35,73.58L139.35,73.58z&#10;&#9;&#9; M148.39,70.87c-0.15-0.7-0.62-1.12-1.33-1.12c-0.38,0-0.71,0.16-0.9,0.46c-0.02,0.03-0.05,0.03-0.05-0.01v-1.35&#10;&#9;&#9;c0-0.63,0.38-1.07,0.93-1.07c0.47,0,0.84,0.43,0.84,1.07v0.1c0,0.05,0.04,0.09,0.1,0.09h0.31c0.06,0,0.1-0.04,0.1-0.09v-0.1&#10;&#9;&#9;c0-0.9-0.56-1.49-1.34-1.49c-0.87,0-1.44,0.59-1.44,1.49l0.01,2.9c0,0.28,0.02,0.54,0.08,0.75c0.14,0.78,0.63,1.17,1.36,1.17&#10;&#9;&#9;c0.78,0,1.27-0.43,1.4-1.25c0.03-0.21,0.05-0.44,0.05-0.69C148.49,71.39,148.46,71.1,148.39,70.87L148.39,70.87z M147.94,72.36&#10;&#9;&#9;c-0.11,0.58-0.42,0.88-0.89,0.88c-0.47,0-0.76-0.28-0.88-0.83c-0.04-0.22-0.06-0.46-0.06-0.72c0-0.27,0.02-0.54,0.08-0.77&#10;&#9;&#9;c0.12-0.5,0.41-0.76,0.86-0.76c0.44,0,0.72,0.24,0.85,0.71c0.06,0.25,0.1,0.52,0.1,0.82C147.98,71.94,147.97,72.15,147.94,72.36&#10;&#9;&#9;L147.94,72.36z M152.72,70.79c-0.16-0.65-0.58-1-1.22-1c-0.45,0-0.8,0.16-1,0.45c-0.03,0.04-0.05,0.03-0.05-0.01v-2.36&#10;&#9;&#9;c0-0.02,0.02-0.04,0.04-0.04h2.06c0.06,0,0.09-0.04,0.09-0.09v-0.24c0-0.05-0.04-0.09-0.09-0.09h-2.51c-0.06,0-0.1,0.04-0.1,0.09&#10;&#9;&#9;v3.36c0,0.05,0.04,0.09,0.1,0.09h0.32c0.06,0,0.09-0.03,0.1-0.08c0.12-0.44,0.43-0.68,0.91-0.68c0.43,0,0.7,0.23,0.84,0.67&#10;&#9;&#9;c0.07,0.23,0.1,0.51,0.1,0.85c0,0.28-0.02,0.54-0.08,0.76c-0.12,0.5-0.41,0.77-0.87,0.77c-0.48,0-0.77-0.27-0.88-0.81&#10;&#9;&#9;c-0.01-0.07-0.03-0.15-0.04-0.23c0-0.06-0.04-0.09-0.09-0.09h-0.31c-0.06,0-0.09,0.04-0.09,0.09c0.01,0.09,0.02,0.18,0.04,0.26&#10;&#9;&#9;c0.14,0.79,0.63,1.19,1.39,1.19c0.75,0,1.24-0.4,1.38-1.16c0.05-0.23,0.07-0.48,0.07-0.77C152.83,71.35,152.79,71.05,152.72,70.79&#10;&#9;&#9;L152.72,70.79z M156.78,73.58h0.34c0.06,0,0.1-0.04,0.1-0.08l1.63-5.61c0.01-0.04,0.02-0.07,0.02-0.11v-0.27&#10;&#9;&#9;c0-0.05-0.04-0.09-0.09-0.09h-2.77c-0.06,0-0.09,0.04-0.09,0.09v0.73c0,0.05,0.04,0.09,0.09,0.09h0.24c0.06,0,0.09-0.04,0.09-0.09&#10;&#9;&#9;v-0.37c0-0.02,0.02-0.04,0.04-0.04h1.91c0.02,0,0.05,0.02,0.04,0.04l-1.65,5.61C156.68,73.55,156.72,73.58,156.78,73.58&#10;&#9;&#9;L156.78,73.58z M163.01,70.79c-0.16-0.65-0.58-1-1.22-1c-0.45,0-0.8,0.16-1,0.45c-0.03,0.04-0.05,0.03-0.05-0.01v-2.36&#10;&#9;&#9;c0-0.02,0.02-0.04,0.04-0.04h2.06c0.06,0,0.1-0.04,0.1-0.09v-0.24c0-0.05-0.04-0.09-0.1-0.09h-2.51c-0.06,0-0.09,0.04-0.09,0.09&#10;&#9;&#9;v3.36c0,0.05,0.04,0.09,0.09,0.09h0.32c0.06,0,0.09-0.03,0.1-0.08c0.12-0.44,0.43-0.68,0.91-0.68c0.43,0,0.7,0.23,0.84,0.67&#10;&#9;&#9;c0.07,0.23,0.1,0.51,0.1,0.85c0,0.28-0.02,0.54-0.08,0.76c-0.12,0.5-0.41,0.77-0.87,0.77c-0.48,0-0.77-0.27-0.88-0.81&#10;&#9;&#9;c-0.01-0.07-0.03-0.15-0.04-0.23c0-0.06-0.04-0.09-0.1-0.09h-0.31c-0.06,0-0.1,0.04-0.1,0.09c0.01,0.09,0.02,0.18,0.04,0.26&#10;&#9;&#9;c0.14,0.79,0.63,1.19,1.39,1.19c0.75,0,1.24-0.4,1.38-1.16c0.05-0.23,0.07-0.48,0.07-0.77C163.12,71.35,163.09,71.05,163.01,70.79&#10;&#9;&#9;L163.01,70.79z M167.37,72.24c0.57,0,1.05-0.45,1.05-0.98c0-0.55-0.48-0.98-1.05-0.98c-0.59,0-1.07,0.43-1.07,0.98&#10;&#9;&#9;C166.3,71.79,166.78,72.24,167.37,72.24L167.37,72.24z M172.15,68.26c0.23,0,0.38-0.16,0.38-0.39c0-0.22-0.15-0.38-0.38-0.38&#10;&#9;&#9;c-0.22,0-0.39,0.16-0.39,0.38C171.76,68.1,171.93,68.26,172.15,68.26L172.15,68.26z M172,73.58h0.31c0.06,0,0.1-0.04,0.1-0.09&#10;&#9;&#9;v-4.26c0-0.05-0.04-0.09-0.1-0.09H172c-0.06,0-0.09,0.04-0.09,0.09v4.26C171.91,73.55,171.94,73.58,172,73.58L172,73.58z&#10;&#9;&#9; M175.61,69.09c-0.41,0-0.77,0.15-1.01,0.49c-0.02,0.04-0.05,0.04-0.05,0v-0.34c0-0.05-0.04-0.09-0.1-0.09h-0.31&#10;&#9;&#9;c-0.06,0-0.1,0.04-0.1,0.09v4.26c0,0.05,0.04,0.09,0.1,0.09h0.31c0.06,0,0.1-0.04,0.1-0.09v-2.94c0-0.66,0.34-1.06,0.9-1.06&#10;&#9;&#9;c0.54,0,0.86,0.37,0.86,1v2.99c0,0.05,0.04,0.09,0.09,0.09h0.31c0.06,0,0.1-0.04,0.1-0.09v-3.04&#10;&#9;&#9;C176.82,69.6,176.38,69.09,175.61,69.09L175.61,69.09z M179.85,67.76h0.12c0.06,0,0.09-0.03,0.09-0.09l0.01-0.23&#10;&#9;&#9;c0-0.05-0.04-0.09-0.1-0.09h-0.14c-0.89,0-1.21,0.47-1.21,1.43v0.33c0,0.02-0.02,0.04-0.04,0.04h-0.4c-0.06,0-0.1,0.04-0.1,0.09&#10;&#9;&#9;v0.19c0,0.05,0.04,0.09,0.1,0.09h0.4c0.02,0,0.04,0.02,0.04,0.04v3.94c0,0.05,0.04,0.09,0.1,0.09h0.31c0.06,0,0.1-0.04,0.1-0.09&#10;&#9;&#9;v-3.94c0-0.02,0.02-0.04,0.04-0.04h0.78c0.06,0,0.09-0.04,0.09-0.09v-0.19c0-0.05-0.04-0.09-0.09-0.09h-0.78&#10;&#9;&#9;c-0.02,0-0.04-0.02-0.04-0.04V68.8C179.13,68.13,179.28,67.76,179.85,67.76L179.85,67.76z M182.72,73.65&#10;&#9;&#9;c0.87,0,1.43-0.54,1.43-1.31V70.4c0-0.77-0.56-1.32-1.43-1.32c-0.85,0-1.41,0.54-1.41,1.32v1.95&#10;&#9;&#9;C181.31,73.12,181.87,73.65,182.72,73.65L182.72,73.65z M182.72,73.24c-0.53,0-0.9-0.38-0.9-0.92v-1.89c0-0.55,0.37-0.93,0.9-0.93&#10;&#9;&#9;c0.54,0,0.92,0.38,0.92,0.93v1.89C183.64,72.86,183.26,73.24,182.72,73.24L182.72,73.24z M189.14,68.25&#10;&#9;&#9;c-1.73,0-3.22,1.25-3.47,3.08c-0.25,1.85,0.88,3.04,2.56,3.04c0.79,0,1.46-0.23,1.83-0.49c0.05-0.04,0.06-0.07,0.02-0.12&#10;&#9;&#9;l-0.09-0.12c-0.04-0.05-0.08-0.05-0.13-0.02c-0.3,0.21-0.87,0.41-1.55,0.41c-1.43,0-2.47-1.02-2.25-2.68&#10;&#9;&#9;c0.22-1.65,1.52-2.76,3.02-2.76c1.57,0,2.55,1.01,2.32,2.59c-0.12,0.89-0.56,1.39-1.15,1.39c-0.49,0-0.76-0.34-0.69-0.85l0.26-1.86&#10;&#9;&#9;c0.01-0.05-0.04-0.1-0.1-0.1h-0.2c-0.06,0-0.08,0.02-0.1,0.08l-0.02,0.13c0,0.04-0.03,0.04-0.05,0.01&#10;&#9;&#9;c-0.15-0.18-0.38-0.26-0.61-0.26c-0.58,0-0.96,0.37-1.05,0.92c-0.02,0.18-0.06,0.42-0.08,0.66c-0.03,0.23-0.08,0.48-0.1,0.69&#10;&#9;&#9;c-0.06,0.56,0.33,0.93,0.9,0.93c0.31,0,0.64-0.14,0.82-0.44c0.02-0.03,0.04-0.03,0.06,0c0.16,0.27,0.46,0.42,0.88,0.42&#10;&#9;&#9;c0.86,0,1.47-0.64,1.62-1.73C192.05,69.4,190.92,68.25,189.14,68.25L189.14,68.25z M188.45,72.59c-0.36,0-0.58-0.25-0.54-0.63&#10;&#9;&#9;c0.03-0.19,0.07-0.41,0.1-0.64c0.02-0.23,0.06-0.46,0.09-0.66c0.06-0.37,0.34-0.63,0.7-0.63c0.33,0,0.53,0.21,0.53,0.54l-0.16,1.19&#10;&#9;&#9;c0,0.03-0.01,0.05-0.01,0.08l-0.02,0.12C189.07,72.34,188.81,72.59,188.45,72.59L188.45,72.59z M196.21,70.38&#10;&#9;&#9;c-0.02-0.76-0.51-1.3-1.28-1.3c-0.41,0-0.75,0.16-0.96,0.46c-0.02,0.04-0.05,0.03-0.05-0.01v-2.01c0-0.05-0.04-0.09-0.09-0.09&#10;&#9;&#9;h-0.31c-0.06,0-0.09,0.04-0.09,0.09v5.98c0,0.05,0.04,0.09,0.09,0.09h0.31c0.06,0,0.09-0.04,0.09-0.09v-0.29&#10;&#9;&#9;c0-0.04,0.03-0.04,0.05-0.01c0.21,0.3,0.55,0.46,0.96,0.46c0.77,0,1.26-0.55,1.28-1.31c0-0.33,0.01-0.67,0.01-0.99&#10;&#9;&#9;C196.22,71.02,196.21,70.71,196.21,70.38L196.21,70.38L196.21,70.38z M195.72,70.44v1.85c0,0.56-0.37,0.95-0.91,0.95&#10;&#9;&#9;c-0.52,0-0.88-0.39-0.88-0.95v-1.85c0-0.56,0.36-0.95,0.88-0.95C195.34,69.49,195.72,69.88,195.72,70.44L195.72,70.44L195.72,70.44&#10;&#9;&#9;z M199.98,69.24v2.94c0,0.66-0.34,1.06-0.89,1.06c-0.54,0-0.86-0.33-0.86-0.98v-3.02c0-0.05-0.04-0.09-0.09-0.09h-0.31&#10;&#9;&#9;c-0.06,0-0.09,0.04-0.09,0.09v3.12c0,0.88,0.5,1.28,1.23,1.28c0.42,0,0.76-0.15,0.97-0.48c0.02-0.03,0.05-0.02,0.05,0.02v0.32&#10;&#9;&#9;c0,0.05,0.04,0.09,0.09,0.09h0.31c0.06,0,0.1-0.04,0.1-0.09v-4.26c0-0.05-0.04-0.09-0.1-0.09h-0.31&#10;&#9;&#9;C200.02,69.15,199.98,69.19,199.98,69.24L199.98,69.24z M204.86,71.45V70.4c0-0.77-0.56-1.32-1.42-1.32&#10;&#9;&#9;c-0.85,0-1.41,0.54-1.41,1.32v1.94c0,0.77,0.56,1.31,1.41,1.31c0.75,0,1.25-0.4,1.38-1.04c0-0.01,0-0.03,0-0.04&#10;&#9;&#9;c0.01-0.04-0.04-0.07-0.08-0.07l-0.3-0.02c-0.06,0-0.08,0.03-0.1,0.08c-0.1,0.4-0.43,0.67-0.88,0.67c-0.53,0-0.9-0.38-0.9-0.92&#10;&#9;&#9;v-0.75c0-0.02,0.02-0.04,0.04-0.04h2.19C204.82,71.53,204.86,71.5,204.86,71.45L204.86,71.45z M203.44,69.49&#10;&#9;&#9;c0.54,0,0.91,0.38,0.91,0.93v0.67c0,0.02-0.02,0.04-0.04,0.04h-1.74c-0.02,0-0.04-0.02-0.04-0.04v-0.67&#10;&#9;&#9;C202.54,69.87,202.91,69.49,203.44,69.49L203.44,69.49z M207.83,69.11c-0.45,0-0.75,0.26-0.92,0.67c-0.02,0.04-0.05,0.04-0.05,0&#10;&#9;&#9;v-0.55c0-0.05-0.04-0.09-0.1-0.09h-0.31c-0.06,0-0.1,0.04-0.1,0.09v4.26c0,0.05,0.04,0.09,0.1,0.09h0.31c0.06,0,0.1-0.04,0.1-0.09&#10;&#9;&#9;v-2.68c0-0.67,0.35-1.18,0.86-1.2c0.15-0.01,0.27,0.01,0.37,0.04c0.07,0.03,0.1,0.02,0.12-0.04l0.08-0.3&#10;&#9;&#9;c0.01-0.04,0-0.09-0.05-0.11C208.13,69.15,208.02,69.11,207.83,69.11L207.83,69.11z M210.85,73.65c0.86,0,1.42-0.54,1.42-1.31V70.4&#10;&#9;&#9;c0-0.77-0.56-1.32-1.42-1.32c-0.85,0-1.41,0.54-1.41,1.32v1.95C209.45,73.12,210.01,73.65,210.85,73.65L210.85,73.65z&#10;&#9;&#9; M210.85,73.24c-0.53,0-0.9-0.38-0.9-0.92v-1.89c0-0.55,0.37-0.93,0.9-0.93c0.54,0,0.92,0.38,0.92,0.93v1.89&#10;&#9;&#9;C211.77,72.86,211.39,73.24,210.85,73.24L210.85,73.24z M214.8,73.58h0.38c0.06,0,0.1-0.03,0.1-0.08l1.17-4.25&#10;&#9;&#9;c0.02-0.05-0.01-0.1-0.08-0.1l-0.36-0.01c-0.06,0-0.09,0.03-0.1,0.08l-0.9,3.61c-0.01,0.04-0.03,0.04-0.04,0l-0.91-3.61&#10;&#9;&#9;c-0.01-0.04-0.05-0.08-0.1-0.08h-0.36c-0.07,0-0.11,0.04-0.09,0.1l1.19,4.26C214.7,73.56,214.74,73.58,214.8,73.58L214.8,73.58z&#10;&#9;&#9; M219.09,69.08c-0.72,0-1.31,0.43-1.39,1.09c-0.01,0.05,0.03,0.09,0.08,0.09l0.34,0.02c0.06,0,0.1-0.03,0.1-0.09&#10;&#9;&#9;c0.05-0.41,0.42-0.7,0.86-0.7c0.56,0,0.88,0.43,0.88,1.07v0.41c0,0.02-0.02,0.04-0.04,0.04h-0.74c-0.91,0-1.6,0.39-1.6,1.42&#10;&#9;&#9;c0,1.01,0.69,1.23,1.23,1.23c0.46,0,0.86-0.15,1.1-0.49c0.02-0.03,0.05-0.02,0.05,0.02v0.32c0,0.05,0.04,0.09,0.1,0.09h0.31&#10;&#9;&#9;c0.06,0,0.09-0.04,0.09-0.09v-2.95C220.46,69.66,219.95,69.08,219.09,69.08L219.09,69.08z M218.92,73.24&#10;&#9;&#9;c-0.47,0-0.83-0.25-0.83-0.85c0-0.68,0.46-0.99,1.09-0.99h0.74c0.02,0,0.04,0.02,0.04,0.04v0.84&#10;&#9;&#9;C219.96,72.93,219.43,73.24,218.92,73.24L218.92,73.24z M223.6,69.43v-0.19c0-0.05-0.04-0.09-0.09-0.09h-0.76&#10;&#9;&#9;c-0.02,0-0.04-0.02-0.04-0.04v-0.99c0-0.05-0.04-0.09-0.1-0.09h-0.3c-0.06,0-0.09,0.04-0.09,0.09v0.99c0,0.02-0.02,0.04-0.04,0.04&#10;&#9;&#9;h-0.39c-0.06,0-0.1,0.04-0.1,0.09v0.19c0,0.05,0.04,0.09,0.1,0.09h0.39c0.02,0,0.04,0.02,0.04,0.04v2.95&#10;&#9;&#9;c0,0.89,0.44,1.08,1.07,1.08h0.19c0.06,0,0.1-0.04,0.1-0.09v-0.24c0-0.05-0.04-0.09-0.1-0.09h-0.1c-0.45,0-0.67-0.17-0.67-0.78&#10;&#9;&#9;v-2.83c0-0.02,0.02-0.04,0.04-0.04h0.76C223.56,69.52,223.6,69.48,223.6,69.43L223.6,69.43z M226.72,69.43v-0.19&#10;&#9;&#9;c0-0.05-0.04-0.09-0.09-0.09h-0.76c-0.02,0-0.04-0.02-0.04-0.04v-0.99c0-0.05-0.04-0.09-0.09-0.09h-0.3c-0.06,0-0.1,0.04-0.1,0.09&#10;&#9;&#9;v0.99c0,0.02-0.02,0.04-0.04,0.04h-0.39c-0.06,0-0.1,0.04-0.1,0.09v0.19c0,0.05,0.04,0.09,0.1,0.09h0.39&#10;&#9;&#9;c0.02,0,0.04,0.02,0.04,0.04v2.95c0,0.89,0.44,1.08,1.07,1.08h0.19c0.06,0,0.1-0.04,0.1-0.09v-0.24c0-0.05-0.04-0.09-0.1-0.09h-0.1&#10;&#9;&#9;c-0.45,0-0.68-0.17-0.68-0.78v-2.83c0-0.02,0.02-0.04,0.04-0.04h0.76C226.69,69.52,226.72,69.48,226.72,69.43L226.72,69.43z&#10;&#9;&#9; M230.78,71.45V70.4c0-0.77-0.56-1.32-1.42-1.32c-0.85,0-1.41,0.54-1.41,1.32v1.94c0,0.77,0.56,1.31,1.41,1.31&#10;&#9;&#9;c0.75,0,1.26-0.4,1.38-1.04c0-0.01,0-0.03,0-0.04c0.01-0.04-0.04-0.07-0.09-0.07l-0.3-0.02c-0.06,0-0.09,0.03-0.1,0.08&#10;&#9;&#9;c-0.11,0.4-0.43,0.67-0.89,0.67c-0.53,0-0.9-0.38-0.9-0.92v-0.75c0-0.02,0.02-0.04,0.04-0.04h2.19&#10;&#9;&#9;C230.75,71.53,230.78,71.5,230.78,71.45L230.78,71.45z M229.37,69.49c0.54,0,0.91,0.38,0.91,0.93v0.67c0,0.02-0.02,0.04-0.04,0.04&#10;&#9;&#9;h-1.74c-0.02,0-0.04-0.02-0.04-0.04v-0.67C228.46,69.87,228.84,69.49,229.37,69.49L229.37,69.49z M233.75,69.11&#10;&#9;&#9;c-0.45,0-0.75,0.26-0.92,0.67c-0.02,0.04-0.05,0.04-0.05,0v-0.55c0-0.05-0.04-0.09-0.09-0.09h-0.31c-0.06,0-0.1,0.04-0.1,0.09v4.26&#10;&#9;&#9;c0,0.05,0.04,0.09,0.1,0.09h0.31c0.06,0,0.09-0.04,0.09-0.09v-2.68c0-0.67,0.35-1.18,0.86-1.2c0.15-0.01,0.28,0.01,0.37,0.04&#10;&#9;&#9;c0.07,0.03,0.11,0.02,0.12-0.04l0.08-0.3c0.01-0.04,0-0.09-0.05-0.11C234.06,69.15,233.94,69.11,233.75,69.11L233.75,69.11z&#10;&#9;&#9; M235.23,73.55c0.26,0,0.46-0.21,0.46-0.47c0-0.25-0.22-0.46-0.46-0.46c-0.23,0-0.45,0.2-0.45,0.46&#10;&#9;&#9;C234.79,73.34,234.98,73.55,235.23,73.55L235.23,73.55z M238.52,73.65c0.86,0,1.42-0.54,1.42-1.17v-0.08c0-0.04-0.04-0.08-0.1-0.08&#10;&#9;&#9;h-0.31c-0.06,0-0.1,0.04-0.1,0.09v0.04c0,0.4-0.37,0.78-0.91,0.78c-0.53,0-0.9-0.38-0.9-0.92v-1.89c0-0.55,0.37-0.93,0.9-0.93&#10;&#9;&#9;c0.54,0,0.91,0.38,0.91,0.78v0.07c0,0.04,0.04,0.07,0.1,0.07l0.31-0.02c0.06,0,0.1-0.04,0.1-0.09v-0.05c0-0.62-0.56-1.18-1.42-1.18&#10;&#9;&#9;c-0.85,0-1.41,0.55-1.41,1.32v1.94C237.11,73.12,237.67,73.65,238.52,73.65L238.52,73.65z M242.96,69.09&#10;&#9;&#9;c-0.41,0-0.77,0.15-1.01,0.49c-0.02,0.04-0.05,0.04-0.05,0v-2.07c0-0.05-0.04-0.09-0.1-0.09h-0.31c-0.06,0-0.09,0.04-0.09,0.09&#10;&#9;&#9;v5.98c0,0.05,0.04,0.09,0.09,0.09h0.31c0.06,0,0.1-0.04,0.1-0.09v-2.94c0-0.66,0.34-1.06,0.9-1.06c0.54,0,0.86,0.37,0.86,1v2.99&#10;&#9;&#9;c0,0.05,0.04,0.09,0.09,0.09h0.31c0.06,0,0.09-0.04,0.09-0.09v-3.04C244.17,69.6,243.73,69.09,242.96,69.09L242.96,69.09z&#10;&#9;&#9; M247.9,72.24c0.58,0,1.07-0.45,1.07-0.98c0-0.55-0.49-0.98-1.07-0.98c-0.6,0-1.09,0.43-1.09,0.98&#10;&#9;&#9;C246.8,71.79,247.3,72.24,247.9,72.24L247.9,72.24z M254.54,70.38c-0.02-0.76-0.52-1.3-1.31-1.3c-0.42,0-0.77,0.16-0.98,0.46&#10;&#9;&#9;c-0.02,0.04-0.05,0.03-0.05-0.01v-2.01c0-0.05-0.04-0.09-0.1-0.09h-0.32c-0.06,0-0.1,0.04-0.1,0.09v5.98c0,0.05,0.04,0.09,0.1,0.09&#10;&#9;&#9;h0.32c0.06,0,0.1-0.04,0.1-0.09v-0.29c0-0.04,0.03-0.04,0.05-0.01c0.21,0.3,0.56,0.46,0.98,0.46c0.78,0,1.29-0.55,1.31-1.31&#10;&#9;&#9;c0-0.33,0.01-0.67,0.01-0.99C254.55,71.02,254.54,70.71,254.54,70.38L254.54,70.38L254.54,70.38z M254.04,70.44v1.85&#10;&#9;&#9;c0,0.56-0.38,0.95-0.93,0.95c-0.53,0-0.9-0.39-0.9-0.95v-1.85c0-0.56,0.37-0.95,0.9-0.95C253.65,69.49,254.04,69.88,254.04,70.44&#10;&#9;&#9;L254.04,70.44L254.04,70.44z M258.38,69.24v2.94c0,0.66-0.35,1.06-0.91,1.06c-0.55,0-0.87-0.33-0.87-0.98v-3.02&#10;&#9;&#9;c0-0.05-0.04-0.09-0.1-0.09h-0.32c-0.06,0-0.1,0.04-0.1,0.09v3.12c0,0.88,0.51,1.28,1.26,1.28c0.43,0,0.77-0.15,0.99-0.48&#10;&#9;&#9;c0.02-0.03,0.05-0.02,0.05,0.02v0.32c0,0.05,0.04,0.09,0.1,0.09h0.32c0.06,0,0.1-0.04,0.1-0.09v-4.26c0-0.05-0.04-0.09-0.1-0.09&#10;&#9;&#9;h-0.32C258.42,69.15,258.38,69.19,258.38,69.24L258.38,69.24z M263.35,71.45V70.4c0-0.77-0.57-1.32-1.44-1.32&#10;&#9;&#9;c-0.86,0-1.43,0.54-1.43,1.32v1.94c0,0.77,0.57,1.31,1.43,1.31c0.76,0,1.28-0.4,1.4-1.04c0-0.01,0-0.03,0-0.04&#10;&#9;&#9;c0.01-0.04-0.04-0.07-0.09-0.07l-0.31-0.02c-0.06,0-0.09,0.03-0.11,0.08c-0.11,0.4-0.44,0.67-0.9,0.67c-0.54,0-0.92-0.38-0.92-0.92&#10;&#9;&#9;v-0.75c0-0.02,0.02-0.04,0.04-0.04h2.23C263.31,71.53,263.35,71.5,263.35,71.45L263.35,71.45z M261.91,69.49&#10;&#9;&#9;c0.55,0,0.93,0.38,0.93,0.93v0.67c0,0.02-0.02,0.04-0.04,0.04h-1.77c-0.02,0-0.04-0.02-0.04-0.04v-0.67&#10;&#9;&#9;C260.98,69.87,261.36,69.49,261.91,69.49L261.91,69.49z M266.37,69.11c-0.46,0-0.77,0.26-0.94,0.67c-0.02,0.04-0.05,0.04-0.05,0&#10;&#9;&#9;v-0.55c0-0.05-0.04-0.09-0.1-0.09h-0.32c-0.06,0-0.1,0.04-0.1,0.09v4.26c0,0.05,0.04,0.09,0.1,0.09h0.32c0.06,0,0.1-0.04,0.1-0.09&#10;&#9;&#9;v-2.68c0-0.67,0.36-1.18,0.87-1.2c0.15-0.01,0.28,0.01,0.38,0.04c0.07,0.03,0.11,0.02,0.13-0.04l0.08-0.3&#10;&#9;&#9;c0.01-0.04,0-0.09-0.05-0.11C266.68,69.15,266.56,69.11,266.37,69.11L266.37,69.11z M269.45,73.65c0.88,0,1.45-0.54,1.45-1.31V70.4&#10;&#9;&#9;c0-0.77-0.57-1.32-1.45-1.32c-0.86,0-1.43,0.54-1.43,1.32v1.95C268.02,73.12,268.59,73.65,269.45,73.65L269.45,73.65z&#10;&#9;&#9; M269.45,73.24c-0.54,0-0.92-0.38-0.92-0.92v-1.89c0-0.55,0.38-0.93,0.92-0.93c0.55,0,0.94,0.38,0.94,0.93v1.89&#10;&#9;&#9;C270.39,72.86,270,73.24,269.45,73.24L269.45,73.24z M273.47,73.58h0.39c0.06,0,0.1-0.03,0.11-0.08l1.19-4.25&#10;&#9;&#9;c0.02-0.05-0.01-0.1-0.08-0.1l-0.37-0.01c-0.06,0-0.1,0.03-0.11,0.08l-0.92,3.61c-0.01,0.04-0.03,0.04-0.04,0l-0.93-3.61&#10;&#9;&#9;c-0.01-0.04-0.05-0.08-0.11-0.08h-0.37c-0.07,0-0.11,0.04-0.09,0.1l1.21,4.26C273.37,73.56,273.41,73.58,273.47,73.58L273.47,73.58&#10;&#9;&#9;z M277.84,69.08c-0.74,0-1.34,0.43-1.41,1.09c-0.01,0.05,0.03,0.09,0.09,0.09l0.35,0.02c0.06,0,0.1-0.03,0.1-0.09&#10;&#9;&#9;c0.05-0.41,0.43-0.7,0.87-0.7c0.57,0,0.9,0.43,0.9,1.07v0.41c0,0.02-0.02,0.04-0.04,0.04h-0.75c-0.93,0-1.64,0.39-1.64,1.42&#10;&#9;&#9;c0,1.01,0.71,1.23,1.26,1.23c0.46,0,0.87-0.15,1.12-0.49c0.02-0.03,0.05-0.02,0.05,0.02v0.32c0,0.05,0.04,0.09,0.1,0.09h0.32&#10;&#9;&#9;c0.06,0,0.1-0.04,0.1-0.09v-2.95C279.24,69.66,278.72,69.08,277.84,69.08L277.84,69.08z M277.66,73.24c-0.47,0-0.84-0.25-0.84-0.85&#10;&#9;&#9;c0-0.68,0.46-0.99,1.11-0.99h0.75c0.02,0,0.04,0.02,0.04,0.04v0.84C278.73,72.93,278.19,73.24,277.66,73.24L277.66,73.24z&#10;&#9;&#9; M282.43,69.43v-0.19c0-0.05-0.04-0.09-0.1-0.09h-0.77c-0.02,0-0.04-0.02-0.04-0.04v-0.99c0-0.05-0.04-0.09-0.1-0.09h-0.31&#10;&#9;&#9;c-0.06,0-0.1,0.04-0.1,0.09v0.99c0,0.02-0.02,0.04-0.04,0.04h-0.4c-0.06,0-0.1,0.04-0.1,0.09v0.19c0,0.05,0.04,0.09,0.1,0.09h0.4&#10;&#9;&#9;c0.02,0,0.04,0.02,0.04,0.04v2.95c0,0.89,0.44,1.08,1.09,1.08h0.19c0.06,0,0.1-0.04,0.1-0.09v-0.24c0-0.05-0.04-0.09-0.1-0.09h-0.1&#10;&#9;&#9;c-0.45,0-0.69-0.17-0.69-0.78v-2.83c0-0.02,0.02-0.04,0.04-0.04h0.77C282.39,69.52,282.43,69.48,282.43,69.43L282.43,69.43z&#10;&#9;&#9; M285.62,69.43v-0.19c0-0.05-0.04-0.09-0.1-0.09h-0.77c-0.02,0-0.04-0.02-0.04-0.04v-0.99c0-0.05-0.04-0.09-0.1-0.09h-0.31&#10;&#9;&#9;c-0.06,0-0.1,0.04-0.1,0.09v0.99c0,0.02-0.02,0.04-0.04,0.04h-0.4c-0.06,0-0.1,0.04-0.1,0.09v0.19c0,0.05,0.04,0.09,0.1,0.09h0.4&#10;&#9;&#9;c0.02,0,0.04,0.02,0.04,0.04v2.95c0,0.89,0.44,1.08,1.09,1.08h0.19c0.06,0,0.1-0.04,0.1-0.09v-0.24c0-0.05-0.04-0.09-0.1-0.09h-0.1&#10;&#9;&#9;c-0.45,0-0.69-0.17-0.69-0.78v-2.83c0-0.02,0.02-0.04,0.04-0.04h0.77C285.58,69.52,285.62,69.48,285.62,69.43L285.62,69.43z&#10;&#9;&#9; M289.75,71.45V70.4c0-0.77-0.57-1.32-1.44-1.32c-0.86,0-1.43,0.54-1.43,1.32v1.94c0,0.77,0.57,1.31,1.43,1.31&#10;&#9;&#9;c0.77,0,1.28-0.4,1.4-1.04c0-0.01,0-0.03,0-0.04c0.01-0.04-0.04-0.07-0.09-0.07l-0.31-0.02c-0.06,0-0.09,0.03-0.11,0.08&#10;&#9;&#9;c-0.11,0.4-0.44,0.67-0.9,0.67c-0.54,0-0.92-0.38-0.92-0.92v-0.75c0-0.02,0.02-0.04,0.04-0.04h2.23&#10;&#9;&#9;C289.71,71.53,289.75,71.5,289.75,71.45L289.75,71.45z M288.31,69.49c0.55,0,0.93,0.38,0.93,0.93v0.67c0,0.02-0.02,0.04-0.04,0.04&#10;&#9;&#9;h-1.77c-0.02,0-0.04-0.02-0.04-0.04v-0.67C287.39,69.87,287.77,69.49,288.31,69.49L288.31,69.49z M292.77,69.11&#10;&#9;&#9;c-0.45,0-0.76,0.26-0.94,0.67c-0.02,0.04-0.05,0.04-0.05,0v-0.55c0-0.05-0.04-0.09-0.1-0.09h-0.32c-0.06,0-0.1,0.04-0.1,0.09v4.26&#10;&#9;&#9;c0,0.05,0.04,0.09,0.1,0.09h0.32c0.06,0,0.1-0.04,0.1-0.09v-2.68c0-0.67,0.36-1.18,0.87-1.2c0.15-0.01,0.28,0.01,0.38,0.04&#10;&#9;&#9;c0.07,0.03,0.11,0.02,0.13-0.04l0.08-0.3c0.01-0.04,0-0.09-0.05-0.11C293.08,69.15,292.97,69.11,292.77,69.11L292.77,69.11z&#10;&#9;&#9; M294.28,73.55c0.26,0,0.46-0.21,0.46-0.47c0-0.25-0.22-0.46-0.46-0.46c-0.23,0-0.45,0.2-0.45,0.46&#10;&#9;&#9;C293.83,73.34,294.02,73.55,294.28,73.55L294.28,73.55z M297.63,73.65c0.87,0,1.44-0.54,1.44-1.17v-0.08c0-0.04-0.04-0.08-0.1-0.08&#10;&#9;&#9;h-0.32c-0.06,0-0.1,0.04-0.1,0.09v0.04c0,0.4-0.38,0.78-0.93,0.78c-0.54,0-0.92-0.38-0.92-0.92v-1.89c0-0.55,0.38-0.93,0.92-0.93&#10;&#9;&#9;c0.55,0,0.93,0.38,0.93,0.78v0.07c0,0.04,0.04,0.07,0.1,0.07l0.32-0.02c0.06,0,0.1-0.04,0.1-0.09v-0.05c0-0.62-0.57-1.18-1.44-1.18&#10;&#9;&#9;c-0.86,0-1.43,0.55-1.43,1.32v1.94C296.2,73.12,296.77,73.65,297.63,73.65L297.63,73.65z M302.15,69.09&#10;&#9;&#9;c-0.42,0-0.79,0.15-1.03,0.49c-0.02,0.04-0.05,0.04-0.05,0v-2.07c0-0.05-0.04-0.09-0.1-0.09h-0.32c-0.06,0-0.1,0.04-0.1,0.09v5.98&#10;&#9;&#9;c0,0.05,0.04,0.09,0.1,0.09h0.32c0.06,0,0.1-0.04,0.1-0.09v-2.94c0-0.66,0.35-1.06,0.92-1.06c0.55,0,0.87,0.37,0.87,1v2.99&#10;&#9;&#9;c0,0.05,0.04,0.09,0.1,0.09h0.32c0.06,0,0.1-0.04,0.1-0.09v-3.04C303.38,69.6,302.94,69.09,302.15,69.09L302.15,69.09z"/>
    <path class="st0" d="M145.18,24.6c0.1-0.36,0-0.62-0.3-0.78c-0.71-0.31-1.57-0.57-2.88-0.57c-3.14,0-5.37,1.71-6.73,4.3&#10;&#9;&#9;c-0.05,0.21-0.2,0.16-0.2-0.05v-3.42c0-0.36-0.25-0.62-0.61-0.62h-1.47c-0.35,0-0.61,0.26-0.61,0.62v24.88&#10;&#9;&#9;c0,0.36,0.25,0.62,0.61,0.62h1.47c0.35,0,0.61-0.26,0.61-0.62V33.62c0-4.1,2.73-7.41,6.53-7.46c1.06-0.05,1.82,0.1,2.43,0.31&#10;&#9;&#9;c0.4,0.16,0.66,0.05,0.76-0.36L145.18,24.6L145.18,24.6z M123.7,36.73c0-2.95-0.05-4.15-0.35-5.55c-0.86-4.92-4.15-8.14-9.67-8.14&#10;&#9;&#9;c-4.91,0-8.4,2.9-9.46,7.2c-0.41,1.61-0.41,3.43-0.41,6.23c0,2.85,0.15,5.08,0.71,6.94c1.27,3.99,4.5,6.58,9.26,6.58&#10;&#9;&#9;c4.5,0,7.74-2.33,9.16-5.75c0.15-0.36,0-0.67-0.35-0.83l-0.91-0.36c-0.36-0.16-0.61-0.05-0.81,0.31c-1.11,2.54-3.54,4.2-6.88,4.25&#10;&#9;&#9;c-3.9,0-6.58-2.28-7.29-5.55c-0.2-0.93-0.25-2.38-0.25-4.46c0-0.16,0-2.49,0-2.65c0.05-1.76,0.1-3.16,0.35-4.09v0&#10;&#9;&#9;c0.66-3.16,3.14-5.39,6.88-5.39c3.75,0,6.33,2.28,7.04,5.55c0.15,0.78,0.25,2.28,0.25,3.94c0,0.16-0.1,0.21-0.2,0.21h-8.82&#10;&#9;&#9;l-1.35,2.23h12.5C123.44,37.4,123.7,37.2,123.7,36.73L123.7,36.73z M96.96,25.17v-1.09c0-0.36-0.25-0.62-0.61-0.62h-5.82&#10;&#9;&#9;c-0.1,0-0.2-0.1-0.2-0.21v-5.81c0-0.36-0.25-0.62-0.61-0.62H88.3c-0.35,0-0.61,0.26-0.61,0.62v5.81c0,0.1-0.1,0.21-0.2,0.21h-2.94&#10;&#9;&#9;c-0.35,0-0.61,0.26-0.61,0.62v1.09c0,0.36,0.25,0.62,0.61,0.62h2.94c0.1,0,0.2,0.1,0.2,0.21v17.06c0.05,5.29,2.94,6.53,7.19,6.53&#10;&#9;&#9;c0.46,0,0.91-0.05,1.42-0.05c0.4,0,0.61-0.26,0.61-0.62v-1.19c0-0.36-0.25-0.62-0.61-0.62h-1.06c-3.29,0-4.91-1.14-4.91-4.77V26&#10;&#9;&#9;c0-0.1,0.1-0.21,0.2-0.21h5.82C96.7,25.79,96.96,25.53,96.96,25.17L96.96,25.17z M76.85,25.17v-1.09c0-0.36-0.25-0.62-0.61-0.62&#10;&#9;&#9;h-5.82c-0.1,0-0.2-0.1-0.2-0.21v-5.81c0-0.36-0.25-0.62-0.61-0.62h-1.42c-0.35,0-0.61,0.26-0.61,0.62v5.81c0,0.1-0.1,0.21-0.2,0.21&#10;&#9;&#9;h-2.94c-0.35,0-0.61,0.26-0.61,0.62v1.09c0,0.36,0.25,0.62,0.61,0.62h2.94c0.1,0,0.2,0.1,0.2,0.21v17.06&#10;&#9;&#9;c0.05,5.29,2.94,6.53,7.19,6.53c0.46,0,0.91-0.05,1.42-0.05c0.4,0,0.61-0.26,0.61-0.62v-1.19c0-0.36-0.25-0.62-0.61-0.62h-1.06&#10;&#9;&#9;c-3.29,0-4.91-1.14-4.91-4.77V26c0-0.1,0.1-0.21,0.2-0.21h5.82C76.6,25.79,76.85,25.53,76.85,25.17L76.85,25.17z M57.15,48.97&#10;&#9;&#9;V31.76c0-5.18-3.04-8.71-9.11-8.71c-5.01,0-8.55,2.49-9.21,6.12c-0.05,0.31,0.2,0.52,0.56,0.57l1.57,0.21&#10;&#9;&#9;c0.35,0.05,0.61-0.16,0.71-0.52c0.56-2.44,2.88-3.94,6.32-3.94c4.65,0,6.48,2.64,6.48,6.32v2.33c0,0.11,0,2.59,0,2.69v4.72&#10;&#9;&#9;c0,4.05-3.95,6.07-7.89,6.07c-3.39,0-6.12-1.61-6.12-5.13c0-3.74,3.29-5.86,8.04-5.86h0.57l1.12-2.27h-2&#10;&#9;&#9;c-6.53,0-10.42,3.16-10.42,8.29c0,5.39,4.1,7.36,8.3,7.36c3.24,0,6.32-1.14,8.14-3.37c0.15-0.16,0.25-0.05,0.25,0.1v2.23&#10;&#9;&#9;c0,0.36,0.25,0.62,0.61,0.62h1.47C56.9,49.59,57.15,49.33,57.15,48.97L57.15,48.97z M38.72,7.87c0.15-0.47-0.1-0.73-0.51-0.73&#10;&#9;&#9;h-1.52c-0.35,0-0.56,0.21-0.66,0.52L23.81,45.34c-0.05,0.16-0.25,0.16-0.3,0l-9.82-16.15c-0.1-0.31-0.3-0.52-0.66-0.52h-1.62&#10;&#9;&#9;c-0.4,0-0.66,0.26-0.51,0.73l11.19,19.67c0.1,0.31,0.3,0.52,0.66,0.52h1.77c0.35,0,0.56-0.21,0.66-0.52L38.72,7.87L38.72,7.87z"/>
    <g>
      <defs>
        <rect id="SVGID_1_" x="8.96" y="-3" width="295" height="88"/>
      </defs>
      <clipPath id="SVGID_00000030472456282168139910000012201614647901060799_">
        <rect x="8.96" y="-3" width="295" height="88" style="overflow: visible;"/>
      </clipPath>
      <path style="clip-path:url(#SVGID_00000030472456282168139910000012201614647901060799_);fill:#C00000;stroke:#C00000;" d="&#10;&#9;&#9;&#9;M145.18,24.6c0.1-0.36,0-0.62-0.3-0.78c-0.71-0.31-1.57-0.57-2.88-0.57c-3.14,0-5.37,1.71-6.73,4.3c-0.05,0.21-0.2,0.16-0.2-0.05&#10;&#9;&#9;&#9;v-3.42c0-0.36-0.25-0.62-0.61-0.62h-1.47c-0.35,0-0.61,0.26-0.61,0.62v24.88c0,0.36,0.25,0.62,0.61,0.62h1.47&#10;&#9;&#9;&#9;c0.35,0,0.61-0.26,0.61-0.62V33.62c0-4.1,2.73-7.41,6.53-7.46c1.06-0.05,1.82,0.1,2.43,0.31c0.4,0.16,0.66,0.05,0.76-0.36&#10;&#9;&#9;&#9;L145.18,24.6L145.18,24.6z M123.7,36.73c0-2.95-0.05-4.15-0.35-5.55c-0.86-4.92-4.15-8.14-9.67-8.14c-4.91,0-8.4,2.9-9.46,7.2&#10;&#9;&#9;&#9;c-0.41,1.61-0.41,3.43-0.41,6.23c0,2.85,0.15,5.08,0.71,6.94c1.27,3.99,4.5,6.58,9.26,6.58c4.5,0,7.74-2.33,9.16-5.75&#10;&#9;&#9;&#9;c0.15-0.36,0-0.67-0.35-0.83l-0.91-0.36c-0.36-0.16-0.61-0.05-0.81,0.31c-1.11,2.54-3.54,4.2-6.88,4.25&#10;&#9;&#9;&#9;c-3.9,0-6.58-2.28-7.29-5.55c-0.2-0.93-0.25-2.38-0.25-4.46c0-0.16,0-2.49,0-2.65c0.05-1.76,0.1-3.16,0.35-4.09v0&#10;&#9;&#9;&#9;c0.66-3.16,3.14-5.39,6.88-5.39c3.75,0,6.33,2.28,7.04,5.55c0.15,0.78,0.25,2.28,0.25,3.94c0,0.16-0.1,0.21-0.2,0.21h-8.82&#10;&#9;&#9;&#9;l-1.35,2.23h12.5C123.44,37.4,123.7,37.2,123.7,36.73L123.7,36.73z M96.96,25.17v-1.09c0-0.36-0.25-0.62-0.61-0.62h-5.82&#10;&#9;&#9;&#9;c-0.1,0-0.2-0.1-0.2-0.21v-5.81c0-0.36-0.25-0.62-0.61-0.62H88.3c-0.35,0-0.61,0.26-0.61,0.62v5.81c0,0.1-0.1,0.21-0.2,0.21h-2.94&#10;&#9;&#9;&#9;c-0.35,0-0.61,0.26-0.61,0.62v1.09c0,0.36,0.25,0.62,0.61,0.62h2.94c0.1,0,0.2,0.1,0.2,0.21v17.06c0.05,5.29,2.94,6.53,7.19,6.53&#10;&#9;&#9;&#9;c0.46,0,0.91-0.05,1.42-0.05c0.4,0,0.61-0.26,0.61-0.62v-1.19c0-0.36-0.25-0.62-0.61-0.62h-1.06c-3.29,0-4.91-1.14-4.91-4.77V26&#10;&#9;&#9;&#9;c0-0.1,0.1-0.21,0.2-0.21h5.82C96.7,25.79,96.96,25.53,96.96,25.17L96.96,25.17z M76.85,25.17v-1.09c0-0.36-0.25-0.62-0.61-0.62&#10;&#9;&#9;&#9;h-5.82c-0.1,0-0.2-0.1-0.2-0.21v-5.81c0-0.36-0.25-0.62-0.61-0.62h-1.42c-0.35,0-0.61,0.26-0.61,0.62v5.81&#10;&#9;&#9;&#9;c0,0.1-0.1,0.21-0.2,0.21h-2.94c-0.35,0-0.61,0.26-0.61,0.62v1.09c0,0.36,0.25,0.62,0.61,0.62h2.94c0.1,0,0.2,0.1,0.2,0.21v17.06&#10;&#9;&#9;&#9;c0.05,5.29,2.94,6.53,7.19,6.53c0.46,0,0.91-0.05,1.42-0.05c0.4,0,0.61-0.26,0.61-0.62v-1.19c0-0.36-0.25-0.62-0.61-0.62h-1.06&#10;&#9;&#9;&#9;c-3.29,0-4.91-1.14-4.91-4.77V26c0-0.1,0.1-0.21,0.2-0.21h5.82C76.6,25.79,76.85,25.53,76.85,25.17L76.85,25.17z M57.15,48.97&#10;&#9;&#9;&#9;V31.76c0-5.18-3.04-8.71-9.11-8.71c-5.01,0-8.55,2.49-9.21,6.12c-0.05,0.31,0.2,0.52,0.56,0.57l1.57,0.21&#10;&#9;&#9;&#9;c0.35,0.05,0.61-0.16,0.71-0.52c0.56-2.44,2.88-3.94,6.32-3.94c4.65,0,6.48,2.64,6.48,6.32v2.33c0,0.11,0,2.59,0,2.69v4.72&#10;&#9;&#9;&#9;c0,4.05-3.95,6.07-7.89,6.07c-3.39,0-6.12-1.61-6.12-5.13c0-3.74,3.29-5.86,8.04-5.86h0.57l1.12-2.27h-2&#10;&#9;&#9;&#9;c-6.53,0-10.42,3.16-10.42,8.29c0,5.39,4.1,7.36,8.3,7.36c3.24,0,6.32-1.14,8.14-3.37c0.15-0.16,0.25-0.05,0.25,0.1v2.23&#10;&#9;&#9;&#9;c0,0.36,0.25,0.62,0.61,0.62h1.47C56.9,49.59,57.15,49.33,57.15,48.97L57.15,48.97z M38.72,7.87c0.15-0.47-0.1-0.73-0.51-0.73&#10;&#9;&#9;&#9;h-1.52c-0.35,0-0.56,0.21-0.66,0.52L23.81,45.34c-0.05,0.16-0.25,0.16-0.3,0l-9.82-16.15c-0.1-0.31-0.3-0.52-0.66-0.52h-1.62&#10;&#9;&#9;&#9;c-0.4,0-0.66,0.26-0.51,0.73l11.19,19.67c0.1,0.31,0.3,0.52,0.66,0.52h1.77c0.35,0,0.56-0.21,0.66-0.52L38.72,7.87L38.72,7.87z"/>
    </g>
  </g>
</svg>